<svg xmlns="http://www.w3.org/2000/svg" xmlns:xlink="http://www.w3.org/1999/xlink" viewBox="0 0 400 400"><defs><style>.a{fill:url(#a);}.b{fill:url(#b);}.c{fill:#00aeef;}.d{fill:#1f364c;}.e{fill:#0e71bb;}.f{fill:#005b9f;}.g{fill:#52acea;}.h{fill:#21e2e2;}.i{fill:#ffbc98;}.j,.k,.n,.r,.s{fill:none;}.k{stroke:#ffbc98;}.k,.n{stroke-width:0.88px;}.l{fill:#80c9ff;}.m{fill:#288ed9;}.n{stroke:#21e2e2;}.o{fill:#137fcf;}.p{fill:#d6eeff;}.q{fill:#fff;}.r,.s{stroke:#f7941d;stroke-miterlimit:10;stroke-width:0.87px;}.s{stroke-dasharray:4.05 4.05;}</style><linearGradient id="a" x1="12.8" y1="207.79" x2="396.38" y2="207.79" gradientUnits="userSpaceOnUse"><stop offset="0" stop-color="#c6e6ff"/><stop offset="1" stop-color="#fff"/></linearGradient><linearGradient id="b" x1="-483.11" y1="402.44" x2="-483.11" y2="401.67" gradientTransform="matrix(531, 0, 0, -95, 256725.64, 38535.44)" gradientUnits="userSpaceOnUse"><stop offset="0" stop-color="#288ed9"/><stop offset="1" stop-color="#137fcf" stop-opacity="0.05"/></linearGradient></defs><title>cloud-host</title><path class="a" d="M393.3,236.9c-6.7-18.5-17.1-24.1-27.1-36-12.1-14.5-20.3-25-17.1-43.7,5.1-30.4,7.3-106.4-73.3-96.5-28.9,3.6-51.8,25.7-68.4,47.8-14.2,18.8-39.6,20.5-60.1,24.9-25.1,5.4-50.8,13.5-74,25.5-48,24.5-62.3,59.8-60.3,105,.6,13.7,2.5,35.2,25.6,60.4,31.1,33.9,76.3,38.5,130.8,22.9,12.4-3.6,24.2-9.2,36.5-13.4a171.2,171.2,0,0,1,39.4-8.6c31.2-3,63.7,2.5,93.7-6.9a99,99,0,0,0,41.9-25.9C395.2,277.4,400.3,256.4,393.3,236.9Z"/><ellipse class="b" cx="192.6" cy="358.1" rx="101.8" ry="18.2"/><path class="c" d="M252.8,71.7a24.4,24.4,0,0,0-11.7,2.9,23.8,23.8,0,0,0-30.5-10.5,34.6,34.6,0,0,0-67,4.6,29.8,29.8,0,0,0-9-1.5,27.6,27.6,0,0,0,0,55.1H252.8a25.3,25.3,0,1,0,0-50.6Z"/><rect class="d" x="114.9" y="232.6" width="155.3" height="12.06"/><path class="e" d="M113.3,200H272c3.1,0,5.6,1.8,5.6,4.1v26.3c0,2.3-2.5,4.2-5.6,4.2H113.3c-3.2,0-5.7-1.9-5.7-4.2V204.1C107.6,201.8,110.1,200,113.3,200Z"/><path class="f" d="M110,200h55v34.6H110a2.5,2.5,0,0,1-2.4-2.5V202.4A2.4,2.4,0,0,1,110,200Z"/><path class="g" d="M214.7,212.4h0a1.8,1.8,0,0,1,1.8,1.8h0a1.8,1.8,0,0,1-1.8,1.8h0a1.8,1.8,0,0,1-1.8-1.8h0A1.8,1.8,0,0,1,214.7,212.4Z"/><path class="h" d="M219,219.6h0a1.8,1.8,0,0,1,1.8,1.8h0a1.8,1.8,0,0,1-1.8,1.8h0a1.8,1.8,0,0,1-1.8-1.8h0A1.8,1.8,0,0,1,219,219.6Z"/><path class="g" d="M221.9,212.4h0a1.8,1.8,0,0,1,1.8,1.8h0a1.8,1.8,0,0,1-1.8,1.8h0a1.8,1.8,0,0,1-1.8-1.8h0A1.8,1.8,0,0,1,221.9,212.4Z"/><path class="g" d="M226.2,219.6h0a1.8,1.8,0,0,1,1.8,1.8h0a1.8,1.8,0,0,1-1.8,1.8h0a1.8,1.8,0,0,1-1.8-1.8h0A1.8,1.8,0,0,1,226.2,219.6Z"/><path class="i" d="M229.1,212.4h0a1.8,1.8,0,0,1,1.8,1.8h0a1.8,1.8,0,0,1-1.8,1.8h0a1.8,1.8,0,0,1-1.8-1.8h0A1.8,1.8,0,0,1,229.1,212.4Z"/><path class="g" d="M233.4,219.6h0a1.8,1.8,0,0,1,1.8,1.8h0a1.8,1.8,0,0,1-1.8,1.8h0a1.8,1.8,0,0,1-1.8-1.8h0A1.8,1.8,0,0,1,233.4,219.6Z"/><path class="g" d="M236.3,212.4h0a1.8,1.8,0,0,1,1.8,1.8h0a1.8,1.8,0,0,1-1.8,1.8h0a1.8,1.8,0,0,1-1.8-1.8h0A1.8,1.8,0,0,1,236.3,212.4Z"/><path class="h" d="M240.6,219.6h0a1.8,1.8,0,0,1,1.8,1.8h0a1.8,1.8,0,0,1-1.8,1.8h0a1.8,1.8,0,0,1-1.8-1.8h0A1.8,1.8,0,0,1,240.6,219.6Z"/><path class="g" d="M243.5,212.4h0a1.8,1.8,0,0,1,1.8,1.8h0a1.8,1.8,0,0,1-1.8,1.8h0a1.8,1.8,0,0,1-1.8-1.8h0A1.8,1.8,0,0,1,243.5,212.4Z"/><path class="g" d="M247.8,219.6h0a1.8,1.8,0,0,1,1.8,1.8h0a1.8,1.8,0,0,1-1.8,1.8h0a1.8,1.8,0,0,1-1.8-1.8h0A1.8,1.8,0,0,1,247.8,219.6Z"/><circle class="j" cx="260.4" cy="217.5" r="3.1"/><circle class="k" cx="260.4" cy="217.5" r="2.4"/><path class="g" d="M206.3,211h0a1.4,1.4,0,0,1,1.4,1.4v10.2a1.4,1.4,0,0,1-1.4,1.3h0a1.3,1.3,0,0,1-1.4-1.3V212.4A1.4,1.4,0,0,1,206.3,211Z"/><path class="g" d="M200.8,211h0a1.4,1.4,0,0,1,1.4,1.4v10.2a1.3,1.3,0,0,1-1.4,1.3h0a1.3,1.3,0,0,1-1.3-1.3V212.4A1.3,1.3,0,0,1,200.8,211Z"/><rect class="f" x="173.6" y="211" width="21.8" height="5.44"/><rect class="f" x="173.6" y="218.5" width="21.8" height="5.44"/><path class="i" d="M204.9,213.7h2.8v8.9a1.4,1.4,0,0,1-1.4,1.3h0a1.3,1.3,0,0,1-1.4-1.3v-8.9Z"/><path class="h" d="M199.5,218.9h2.7v3.7a1.3,1.3,0,0,1-1.4,1.3h0a1.3,1.3,0,0,1-1.3-1.3h0v-3.7Z"/><rect class="l" x="173.6" y="211" width="5.4" height="5.44"/><rect class="l" x="173.6" y="218.5" width="5.4" height="5.44"/><rect class="m" x="181.8" y="213" width="10.9" height="1.36"/><rect class="m" x="181.8" y="220.5" width="10.9" height="1.36"/><circle class="j" cx="260.4" cy="217.5" r="6.5"/><circle class="n" cx="260.4" cy="217.5" r="5.9"/><path class="m" d="M149.5,222.7h0a2.2,2.2,0,0,1,2.2,2.3v.2a2.2,2.2,0,0,1-2.2,2.2h0a2.2,2.2,0,0,1-2.3-2.2V225A2.3,2.3,0,0,1,149.5,222.7Z"/><path class="o" d="M149.6,209.6h0a.9.9,0,0,1,1,1v8.8a1,1,0,0,1-1,1.1h0a1,1,0,0,1-1-1.1v-8.8A.9.9,0,0,1,149.6,209.6Z"/><path class="p" d="M142.7,222.7h0a2.2,2.2,0,0,1,2.2,2.3v.2a2.2,2.2,0,0,1-2.2,2.2h0a2.2,2.2,0,0,1-2.3-2.2V225A2.3,2.3,0,0,1,142.7,222.7Z"/><path class="q" d="M142.8,213.7h0a1,1,0,0,1,1,1v4.7a1.1,1.1,0,0,1-1,1.1h0a1,1,0,0,1-1-1.1v-4.7A.9.9,0,0,1,142.8,213.7Z"/><path class="m" d="M135.8,222.7h0a2.3,2.3,0,0,1,2.3,2.3v.2a2.2,2.2,0,0,1-2.3,2.2h0a2.2,2.2,0,0,1-2.2-2.2V225A2.2,2.2,0,0,1,135.8,222.7Z"/><path class="o" d="M136,208h0a1.1,1.1,0,0,1,1,1v10.4a1.1,1.1,0,0,1-1,1.1h0a1,1,0,0,1-1-1.1V209A1,1,0,0,1,136,208Z"/><path class="i" d="M129,222.7h0a2.3,2.3,0,0,1,2.3,2.3v.2a2.2,2.2,0,0,1-2.3,2.2h0a2.2,2.2,0,0,1-2.2-2.2V225A2.2,2.2,0,0,1,129,222.7Z"/><path class="i" d="M129.2,210.6h0a1.1,1.1,0,0,1,1,1v7.8a1.1,1.1,0,0,1-1,1.1h0a1,1,0,0,1-1-1.1v-7.8A1,1,0,0,1,129.2,210.6Z"/><path class="h" d="M122.2,222.7h0a2.3,2.3,0,0,1,2.3,2.3v.2a2.2,2.2,0,0,1-2.3,2.2h0a2.2,2.2,0,0,1-2.2-2.2V225A2.2,2.2,0,0,1,122.2,222.7Z"/><path class="h" d="M122.4,215h0a1.1,1.1,0,0,1,1,1v3.4a1.1,1.1,0,0,1-1,1.1h0a1.1,1.1,0,0,1-1.1-1.1V216A1.1,1.1,0,0,1,122.4,215Z"/><rect class="d" x="114.9" y="273.8" width="155.3" height="12.06"/><path class="e" d="M113.3,241.2H272c3.1,0,5.6,1.8,5.6,4.1v26.3c0,2.3-2.5,4.2-5.6,4.2H113.3c-3.2,0-5.7-1.9-5.7-4.2V245.3C107.6,243,110.1,241.2,113.3,241.2Z"/><path class="f" d="M110,241.2h55v34.6H110a2.5,2.5,0,0,1-2.4-2.5V243.6A2.4,2.4,0,0,1,110,241.2Z"/><path class="g" d="M214.7,253.5h0a1.9,1.9,0,0,1,1.8,1.9h0a1.9,1.9,0,0,1-1.8,1.8h0a1.9,1.9,0,0,1-1.8-1.8h0A1.9,1.9,0,0,1,214.7,253.5Z"/><path class="h" d="M219,260.8h0a1.8,1.8,0,0,1,1.8,1.8h0a1.9,1.9,0,0,1-1.8,1.8h0a1.9,1.9,0,0,1-1.8-1.8h0A1.8,1.8,0,0,1,219,260.8Z"/><path class="g" d="M221.9,253.5h0a1.9,1.9,0,0,1,1.8,1.9h0a1.9,1.9,0,0,1-1.8,1.8h0a1.9,1.9,0,0,1-1.8-1.8h0A1.9,1.9,0,0,1,221.9,253.5Z"/><path class="g" d="M226.2,260.8h0a1.8,1.8,0,0,1,1.8,1.8h0a1.9,1.9,0,0,1-1.8,1.8h0a1.9,1.9,0,0,1-1.8-1.8h0A1.8,1.8,0,0,1,226.2,260.8Z"/><path class="i" d="M229.1,253.5h0a1.9,1.9,0,0,1,1.8,1.9h0a1.9,1.9,0,0,1-1.8,1.8h0a1.9,1.9,0,0,1-1.8-1.8h0A1.9,1.9,0,0,1,229.1,253.5Z"/><path class="g" d="M233.4,260.8h0a1.8,1.8,0,0,1,1.8,1.8h0a1.9,1.9,0,0,1-1.8,1.8h0a1.9,1.9,0,0,1-1.8-1.8h0A1.8,1.8,0,0,1,233.4,260.8Z"/><path class="g" d="M236.3,253.5h0a1.9,1.9,0,0,1,1.8,1.9h0a1.9,1.9,0,0,1-1.8,1.8h0a1.9,1.9,0,0,1-1.8-1.8h0A1.9,1.9,0,0,1,236.3,253.5Z"/><path class="h" d="M240.6,260.8h0a1.8,1.8,0,0,1,1.8,1.8h0a1.9,1.9,0,0,1-1.8,1.8h0a1.9,1.9,0,0,1-1.8-1.8h0A1.8,1.8,0,0,1,240.6,260.8Z"/><path class="g" d="M243.5,253.5h0a1.9,1.9,0,0,1,1.8,1.9h0a1.9,1.9,0,0,1-1.8,1.8h0a1.9,1.9,0,0,1-1.8-1.8h0A1.9,1.9,0,0,1,243.5,253.5Z"/><path class="g" d="M247.8,260.8h0a1.8,1.8,0,0,1,1.8,1.8h0a1.9,1.9,0,0,1-1.8,1.8h0a1.9,1.9,0,0,1-1.8-1.8h0A1.8,1.8,0,0,1,247.8,260.8Z"/><circle class="j" cx="260.4" cy="258.7" r="3.1"/><circle class="k" cx="260.4" cy="258.7" r="2.4"/><path class="g" d="M206.3,252.2h0a1.4,1.4,0,0,1,1.4,1.4v10.2a1.4,1.4,0,0,1-1.4,1.3h0a1.3,1.3,0,0,1-1.4-1.3V253.6A1.4,1.4,0,0,1,206.3,252.2Z"/><path class="g" d="M200.8,252.2h0a1.4,1.4,0,0,1,1.4,1.4v10.2a1.3,1.3,0,0,1-1.4,1.3h0a1.3,1.3,0,0,1-1.3-1.3V253.6A1.3,1.3,0,0,1,200.8,252.2Z"/><rect class="f" x="173.6" y="252.2" width="21.8" height="5.44"/><rect class="f" x="173.6" y="259.7" width="21.8" height="5.44"/><path class="i" d="M204.9,254.9h2.8v8.9a1.4,1.4,0,0,1-1.4,1.3h0a1.3,1.3,0,0,1-1.4-1.3v-8.9Z"/><path class="h" d="M199.5,260.1h2.7v3.7a1.3,1.3,0,0,1-1.4,1.3h0a1.3,1.3,0,0,1-1.3-1.3h0v-3.7Z"/><rect class="l" x="173.6" y="252.2" width="5.4" height="5.44"/><rect class="l" x="173.6" y="259.7" width="5.4" height="5.44"/><rect class="m" x="181.8" y="254.2" width="10.9" height="1.36"/><rect class="m" x="181.8" y="261.7" width="10.9" height="1.36"/><circle class="j" cx="260.4" cy="258.7" r="6.5"/><circle class="n" cx="260.4" cy="258.7" r="5.9"/><path class="m" d="M149.5,263.9h0a2.2,2.2,0,0,1,2.2,2.3h0a2.2,2.2,0,0,1-2.2,2.3h0a2.3,2.3,0,0,1-2.3-2.3h0A2.3,2.3,0,0,1,149.5,263.9Z"/><path class="o" d="M149.6,250.8h0a.9.9,0,0,1,1,1v8.8a1,1,0,0,1-1,1.1h0a1,1,0,0,1-1-1.1v-8.8A.9.9,0,0,1,149.6,250.8Z"/><path class="p" d="M142.7,263.9h0a2.2,2.2,0,0,1,2.2,2.3h0a2.2,2.2,0,0,1-2.2,2.3h0a2.3,2.3,0,0,1-2.3-2.3h0A2.3,2.3,0,0,1,142.7,263.9Z"/><path class="q" d="M142.8,254.8h0a1.1,1.1,0,0,1,1,1.1v4.7a1.1,1.1,0,0,1-1,1.1h0a1,1,0,0,1-1-1.1v-4.7A1,1,0,0,1,142.8,254.8Z"/><path class="m" d="M135.8,263.9h0a2.3,2.3,0,0,1,2.3,2.3h0a2.3,2.3,0,0,1-2.3,2.3h0a2.2,2.2,0,0,1-2.2-2.3h0A2.2,2.2,0,0,1,135.8,263.9Z"/><path class="o" d="M136,249.2h0a1.1,1.1,0,0,1,1,1v10.4a1.1,1.1,0,0,1-1,1.1h0a1,1,0,0,1-1-1.1V250.2A1,1,0,0,1,136,249.2Z"/><path class="i" d="M129,263.9h0a2.3,2.3,0,0,1,2.3,2.3h0a2.3,2.3,0,0,1-2.3,2.3h0a2.2,2.2,0,0,1-2.2-2.3h0A2.2,2.2,0,0,1,129,263.9Z"/><path class="i" d="M129.2,251.8h0a1.1,1.1,0,0,1,1,1v7.8a1.1,1.1,0,0,1-1,1.1h0a1,1,0,0,1-1-1.1v-7.8A1,1,0,0,1,129.2,251.8Z"/><path class="h" d="M122.2,263.9h0a2.3,2.3,0,0,1,2.3,2.3h0a2.3,2.3,0,0,1-2.3,2.3h0a2.2,2.2,0,0,1-2.2-2.3h0A2.2,2.2,0,0,1,122.2,263.9Z"/><path class="h" d="M122.4,256.2h0a1.1,1.1,0,0,1,1,1v3.4a1.1,1.1,0,0,1-1,1.1h0a1.1,1.1,0,0,1-1.1-1.1v-3.4A1.1,1.1,0,0,1,122.4,256.2Z"/><rect class="d" x="114.9" y="314.9" width="155.3" height="12.06"/><path class="e" d="M113.3,282.4H272c3.1,0,5.6,1.8,5.6,4.1v26.3c0,2.3-2.5,4.1-5.6,4.1H113.3c-3.2,0-5.7-1.8-5.7-4.1V286.5C107.6,284.2,110.1,282.4,113.3,282.4Z"/><path class="f" d="M110,282.4h55v34.5H110a2.4,2.4,0,0,1-2.4-2.4V284.8A2.4,2.4,0,0,1,110,282.4Z"/><path class="g" d="M214.7,294.7h0a1.8,1.8,0,0,1,1.8,1.8h0a1.8,1.8,0,0,1-1.8,1.8h0a1.8,1.8,0,0,1-1.8-1.8h0A1.8,1.8,0,0,1,214.7,294.7Z"/><path class="h" d="M219,301.9h0a1.9,1.9,0,0,1,1.8,1.8h0a1.8,1.8,0,0,1-1.8,1.8h0a1.8,1.8,0,0,1-1.8-1.8h0A1.9,1.9,0,0,1,219,301.9Z"/><path class="g" d="M221.9,294.7h0a1.8,1.8,0,0,1,1.8,1.8h0a1.8,1.8,0,0,1-1.8,1.8h0a1.8,1.8,0,0,1-1.8-1.8h0A1.8,1.8,0,0,1,221.9,294.7Z"/><path class="g" d="M226.2,301.9h0a1.9,1.9,0,0,1,1.8,1.8h0a1.8,1.8,0,0,1-1.8,1.8h0a1.8,1.8,0,0,1-1.8-1.8h0A1.9,1.9,0,0,1,226.2,301.9Z"/><path class="i" d="M229.1,294.7h0a1.8,1.8,0,0,1,1.8,1.8h0a1.8,1.8,0,0,1-1.8,1.8h0a1.8,1.8,0,0,1-1.8-1.8h0A1.8,1.8,0,0,1,229.1,294.7Z"/><path class="g" d="M233.4,301.9h0a1.9,1.9,0,0,1,1.8,1.8h0a1.8,1.8,0,0,1-1.8,1.8h0a1.8,1.8,0,0,1-1.8-1.8h0A1.9,1.9,0,0,1,233.4,301.9Z"/><path class="g" d="M236.3,294.7h0a1.8,1.8,0,0,1,1.8,1.8h0a1.8,1.8,0,0,1-1.8,1.8h0a1.8,1.8,0,0,1-1.8-1.8h0A1.8,1.8,0,0,1,236.3,294.7Z"/><path class="h" d="M240.6,301.9h0a1.9,1.9,0,0,1,1.8,1.8h0a1.8,1.8,0,0,1-1.8,1.8h0a1.8,1.8,0,0,1-1.8-1.8h0A1.9,1.9,0,0,1,240.6,301.9Z"/><path class="g" d="M243.5,294.7h0a1.8,1.8,0,0,1,1.8,1.8h0a1.8,1.8,0,0,1-1.8,1.8h0a1.8,1.8,0,0,1-1.8-1.8h0A1.8,1.8,0,0,1,243.5,294.7Z"/><path class="g" d="M247.8,301.9h0a1.9,1.9,0,0,1,1.8,1.8h0a1.8,1.8,0,0,1-1.8,1.8h0a1.8,1.8,0,0,1-1.8-1.8h0A1.9,1.9,0,0,1,247.8,301.9Z"/><circle class="j" cx="260.4" cy="299.8" r="3.1"/><circle class="k" cx="260.4" cy="299.8" r="2.4"/><path class="g" d="M206.3,293.4h0a1.4,1.4,0,0,1,1.4,1.3V305a1.4,1.4,0,0,1-1.4,1.3h0a1.3,1.3,0,0,1-1.4-1.3V294.7A1.3,1.3,0,0,1,206.3,293.4Z"/><path class="g" d="M200.8,293.4h0a1.3,1.3,0,0,1,1.4,1.3V305a1.3,1.3,0,0,1-1.4,1.3h0a1.3,1.3,0,0,1-1.3-1.3V294.7A1.3,1.3,0,0,1,200.8,293.4Z"/><rect class="f" x="173.6" y="293.4" width="21.8" height="5.44"/><rect class="f" x="173.6" y="300.9" width="21.8" height="5.44"/><path class="i" d="M204.9,296.1h2.8V305a1.4,1.4,0,0,1-1.4,1.3h0a1.3,1.3,0,0,1-1.4-1.3v-8.9Z"/><path class="h" d="M199.5,301.3h2.7V305a1.3,1.3,0,0,1-1.4,1.3h0a1.3,1.3,0,0,1-1.3-1.3h0v-3.7Z"/><rect class="l" x="173.6" y="293.4" width="5.4" height="5.44"/><rect class="l" x="173.6" y="300.9" width="5.4" height="5.44"/><rect class="m" x="181.8" y="295.4" width="10.9" height="1.36"/><rect class="m" x="181.8" y="302.9" width="10.9" height="1.36"/><circle class="j" cx="260.4" cy="299.8" r="6.5"/><circle class="n" cx="260.4" cy="299.8" r="5.9"/><path class="m" d="M149.5,305.1h0a2.2,2.2,0,0,1,2.2,2.3h0a2.2,2.2,0,0,1-2.2,2.3h0a2.3,2.3,0,0,1-2.3-2.3h0A2.3,2.3,0,0,1,149.5,305.1Z"/><path class="o" d="M149.6,292h0a.9.9,0,0,1,1,1v8.8a.9.9,0,0,1-1,1h0a.9.9,0,0,1-1-1V293A.9.9,0,0,1,149.6,292Z"/><path class="p" d="M142.7,305.1h0a2.2,2.2,0,0,1,2.2,2.3h0a2.2,2.2,0,0,1-2.2,2.3h0a2.3,2.3,0,0,1-2.3-2.3h0A2.3,2.3,0,0,1,142.7,305.1Z"/><path class="q" d="M142.8,296h0a1.1,1.1,0,0,1,1,1.1v4.7a1,1,0,0,1-1,1h0a.9.9,0,0,1-1-1v-4.7A1,1,0,0,1,142.8,296Z"/><path class="m" d="M135.8,305.1h0a2.3,2.3,0,0,1,2.3,2.3h0a2.3,2.3,0,0,1-2.3,2.3h0a2.2,2.2,0,0,1-2.2-2.3h0A2.2,2.2,0,0,1,135.8,305.1Z"/><path class="o" d="M136,290.4h0a1.1,1.1,0,0,1,1,1v10.4a1,1,0,0,1-1,1h0a.9.9,0,0,1-1-1V291.4A1,1,0,0,1,136,290.4Z"/><path class="i" d="M129,305.1h0a2.3,2.3,0,0,1,2.3,2.3h0a2.3,2.3,0,0,1-2.3,2.3h0a2.2,2.2,0,0,1-2.2-2.3h0A2.2,2.2,0,0,1,129,305.1Z"/><path class="i" d="M129.2,293h0a1,1,0,0,1,1,1v7.8a1,1,0,0,1-1,1h0a.9.9,0,0,1-1-1V294A.9.9,0,0,1,129.2,293Z"/><path class="h" d="M122.2,305.1h0a2.3,2.3,0,0,1,2.3,2.3h0a2.3,2.3,0,0,1-2.3,2.3h0a2.2,2.2,0,0,1-2.2-2.3h0A2.2,2.2,0,0,1,122.2,305.1Z"/><path class="h" d="M122.4,297.4h0a1.1,1.1,0,0,1,1,1v3.4a1,1,0,0,1-1,1h0a1,1,0,0,1-1.1-1v-3.4A1.1,1.1,0,0,1,122.4,297.4Z"/><path class="e" d="M113.3,323.5H272c3.1,0,5.6,1.9,5.6,4.2V354c0,2.3-2.5,4.1-5.6,4.1H113.3c-3.2,0-5.7-1.8-5.7-4.1V327.7C107.6,325.4,110.1,323.5,113.3,323.5Z"/><path class="f" d="M110,323.5h55v34.6H110a2.4,2.4,0,0,1-2.4-2.4V326A2.5,2.5,0,0,1,110,323.5Z"/><path class="g" d="M214.7,335.9h0a1.8,1.8,0,0,1,1.8,1.8h0a1.8,1.8,0,0,1-1.8,1.8h0a1.8,1.8,0,0,1-1.8-1.8h0A1.8,1.8,0,0,1,214.7,335.9Z"/><path class="h" d="M219,343.1h0a1.8,1.8,0,0,1,1.8,1.8h0a1.8,1.8,0,0,1-1.8,1.8h0a1.8,1.8,0,0,1-1.8-1.8h0A1.8,1.8,0,0,1,219,343.1Z"/><path class="g" d="M221.9,335.9h0a1.8,1.8,0,0,1,1.8,1.8h0a1.8,1.8,0,0,1-1.8,1.8h0a1.8,1.8,0,0,1-1.8-1.8h0A1.8,1.8,0,0,1,221.9,335.9Z"/><path class="g" d="M226.2,343.1h0a1.8,1.8,0,0,1,1.8,1.8h0a1.8,1.8,0,0,1-1.8,1.8h0a1.8,1.8,0,0,1-1.8-1.8h0A1.8,1.8,0,0,1,226.2,343.1Z"/><path class="i" d="M229.1,335.9h0a1.8,1.8,0,0,1,1.8,1.8h0a1.8,1.8,0,0,1-1.8,1.8h0a1.8,1.8,0,0,1-1.8-1.8h0A1.8,1.8,0,0,1,229.1,335.9Z"/><path class="g" d="M233.4,343.1h0a1.8,1.8,0,0,1,1.8,1.8h0a1.8,1.8,0,0,1-1.8,1.8h0a1.8,1.8,0,0,1-1.8-1.8h0A1.8,1.8,0,0,1,233.4,343.1Z"/><path class="g" d="M236.3,335.9h0a1.8,1.8,0,0,1,1.8,1.8h0a1.8,1.8,0,0,1-1.8,1.8h0a1.8,1.8,0,0,1-1.8-1.8h0A1.8,1.8,0,0,1,236.3,335.9Z"/><path class="h" d="M240.6,343.1h0a1.8,1.8,0,0,1,1.8,1.8h0a1.8,1.8,0,0,1-1.8,1.8h0a1.8,1.8,0,0,1-1.8-1.8h0A1.8,1.8,0,0,1,240.6,343.1Z"/><path class="g" d="M243.5,335.9h0a1.8,1.8,0,0,1,1.8,1.8h0a1.8,1.8,0,0,1-1.8,1.8h0a1.8,1.8,0,0,1-1.8-1.8h0A1.8,1.8,0,0,1,243.5,335.9Z"/><path class="g" d="M247.8,343.1h0a1.8,1.8,0,0,1,1.8,1.8h0a1.8,1.8,0,0,1-1.8,1.8h0a1.8,1.8,0,0,1-1.8-1.8h0A1.8,1.8,0,0,1,247.8,343.1Z"/><circle class="j" cx="260.4" cy="341" r="3.1"/><circle class="k" cx="260.4" cy="341" r="2.4"/><path class="g" d="M206.3,334.6h0a1.4,1.4,0,0,1,1.4,1.3v10.2a1.4,1.4,0,0,1-1.4,1.4h0a1.4,1.4,0,0,1-1.4-1.4V335.9A1.3,1.3,0,0,1,206.3,334.6Z"/><path class="g" d="M200.8,334.6h0a1.3,1.3,0,0,1,1.4,1.3v10.2a1.4,1.4,0,0,1-1.4,1.4h0a1.3,1.3,0,0,1-1.3-1.4V335.9A1.3,1.3,0,0,1,200.8,334.6Z"/><rect class="f" x="173.6" y="334.6" width="21.8" height="5.44"/><rect class="f" x="173.6" y="342.1" width="21.8" height="5.44"/><path class="i" d="M204.9,337.3h2.8v8.8a1.4,1.4,0,0,1-1.4,1.4h0a1.4,1.4,0,0,1-1.4-1.4v-8.8Z"/><path class="h" d="M199.5,342.5h2.7v3.6a1.4,1.4,0,0,1-1.4,1.4h0a1.3,1.3,0,0,1-1.3-1.4h0v-3.6Z"/><rect class="l" x="173.6" y="334.6" width="5.4" height="5.44"/><rect class="l" x="173.6" y="342.1" width="5.4" height="5.44"/><rect class="m" x="181.8" y="336.6" width="10.9" height="1.36"/><rect class="m" x="181.8" y="344.1" width="10.9" height="1.36"/><circle class="j" cx="260.4" cy="341" r="6.5"/><circle class="n" cx="260.4" cy="341" r="5.9"/><path class="m" d="M149.5,345.7h0a2.2,2.2,0,0,1,2.2,2.2v.2a2.2,2.2,0,0,1-2.2,2.3h0a2.3,2.3,0,0,1-2.3-2.3v-.2A2.2,2.2,0,0,1,149.5,345.7Z"/><path class="o" d="M149.6,332.5h0a1,1,0,0,1,1,1.1v8.8a.9.9,0,0,1-1,1h0a.9.9,0,0,1-1-1v-8.8A1,1,0,0,1,149.6,332.5Z"/><path class="p" d="M142.7,345.7h0a2.2,2.2,0,0,1,2.2,2.2v.2a2.2,2.2,0,0,1-2.2,2.3h0a2.3,2.3,0,0,1-2.3-2.3v-.2A2.2,2.2,0,0,1,142.7,345.7Z"/><path class="q" d="M142.8,336.6h0a1.1,1.1,0,0,1,1,1v4.8a1,1,0,0,1-1,1h0a.9.9,0,0,1-1-1v-4.8A1,1,0,0,1,142.8,336.6Z"/><path class="m" d="M135.8,345.7h0a2.2,2.2,0,0,1,2.3,2.2v.2a2.3,2.3,0,0,1-2.3,2.3h0a2.2,2.2,0,0,1-2.2-2.3v-.2A2.2,2.2,0,0,1,135.8,345.7Z"/><path class="o" d="M136,331h0a1,1,0,0,1,1,1v10.4a1,1,0,0,1-1,1h0a.9.9,0,0,1-1-1V332A.9.9,0,0,1,136,331Z"/><path class="i" d="M129,345.7h0a2.2,2.2,0,0,1,2.3,2.2v.2a2.3,2.3,0,0,1-2.3,2.3h0a2.2,2.2,0,0,1-2.2-2.3v-.2A2.2,2.2,0,0,1,129,345.7Z"/><path class="i" d="M129.2,333.6h0a1,1,0,0,1,1,1v7.8a1,1,0,0,1-1,1h0a.9.9,0,0,1-1-1v-7.8A.9.9,0,0,1,129.2,333.6Z"/><path class="h" d="M122.2,345.7h0a2.2,2.2,0,0,1,2.3,2.2v.2a2.3,2.3,0,0,1-2.3,2.3h0a2.2,2.2,0,0,1-2.2-2.3v-.2A2.2,2.2,0,0,1,122.2,345.7Z"/><path class="h" d="M122.4,338h0a1,1,0,0,1,1,1v3.4a1,1,0,0,1-1,1h0a1,1,0,0,1-1.1-1V339A1,1,0,0,1,122.4,338Z"/><line class="r" x1="192.6" y1="125.9" x2="192.6" y2="128.1"/><line class="s" x1="192.6" y1="132.1" x2="192.6" y2="186.8"/><line class="r" x1="192.6" y1="188.8" x2="192.6" y2="191"/></svg>