<svg xmlns="http://www.w3.org/2000/svg" xmlns:xlink="http://www.w3.org/1999/xlink" viewBox="0 0 400 400"><defs><style>.a{isolation:isolate;fill:url(#a);}.b{fill:#f59b6b;}.c{fill:url(#b);}.d{fill:url(#c);}.e{fill:url(#d);}.f{fill:#7564b4;}.g{fill:#473281;}.h{fill:#21e2e2;}.i{fill:#37b5e8;}.j{fill:#239de8;}.k{fill:#ffe7cb;}.l{fill:#152735;}.m{fill:#11222b;}.n{fill:#1f364c;}.o{fill:#e08d7e;opacity:0.26;}.p{fill:#0e71bb;}.q{fill:#288ed9;}.r{fill:#5075a8;}.s{fill:url(#e);}.t{fill:url(#f);}.u,.v{fill:none;stroke:#f7941d;stroke-miterlimit:10;stroke-width:0.87px;}.v{stroke-dasharray:4.34 4.34;}</style><linearGradient id="a" x1="83.25" y1="86.6" x2="308.22" y2="385.14" gradientUnits="userSpaceOnUse"><stop offset="0" stop-color="#c6e6ff"/><stop offset="1" stop-color="#fff"/></linearGradient><linearGradient id="b" x1="79.2" y1="208.66" x2="218.52" y2="208.66" gradientUnits="userSpaceOnUse"><stop offset="0" stop-color="#44989f"/><stop offset="0.36" stop-color="#439aa1"/><stop offset="0.56" stop-color="#3fa2a8"/><stop offset="0.72" stop-color="#39b0b5"/><stop offset="0.85" stop-color="#30c3c6"/><stop offset="0.98" stop-color="#24dcdd"/><stop offset="1" stop-color="#21e2e2"/></linearGradient><linearGradient id="c" x1="76.23" y1="211.93" x2="215.56" y2="211.93" gradientUnits="userSpaceOnUse"><stop offset="0" stop-color="#44989f"/><stop offset="0.21" stop-color="#39b0b4"/><stop offset="0.52" stop-color="#2ccbcd"/><stop offset="0.8" stop-color="#24dcdd"/><stop offset="1" stop-color="#21e2e2"/></linearGradient><linearGradient id="d" x1="146.55" y1="162.53" x2="146.55" y2="265.78" gradientUnits="userSpaceOnUse"><stop offset="0" stop-color="#ffbc98"/><stop offset="1" stop-color="#ff9f6c"/></linearGradient><linearGradient id="e" x1="179.65" y1="232.65" x2="179.65" y2="335.9" xlink:href="#d"/><linearGradient id="f" x1="185.61" y1="150.66" x2="249.37" y2="150.66" xlink:href="#b"/></defs><title>download-host</title><path class="a" d="M353.9,344.6a23.7,23.7,0,0,0,20.9-12.2c23.3-42.8,15.3-105.8-16.2-122.7-39.3-21.1,16.3-82.8-36-114.2s-94.4,40-165.1,1S31.7,116.7,39.9,159.2c5.8,29.6,20.9,55.4-18.4,93.3-27.1,26.1-4.7,62.9,12,83.4A23.7,23.7,0,0,0,52,344.6Z"/><path class="b" d="M214.1,153.2H128.5a4.3,4.3,0,0,1-3.8-2.5l-3.2-7.7a6.8,6.8,0,0,0-6.1-4.1H79.7a6.7,6.7,0,0,0-6.1,4.1l-3,7a18.5,18.5,0,0,0-1.3,6.6V258.1a9.6,9.6,0,0,0,9.7,9.7H214.1a9.6,9.6,0,0,0,9.7-9.7V162.9A9.6,9.6,0,0,0,214.1,153.2Z"/><rect class="c" x="79.2" y="151.7" width="139.3" height="113.89"/><rect class="d" x="76.2" y="155" width="139.3" height="113.89"/><rect class="e" x="69.3" y="159.6" width="154.5" height="114.57" rx="8.1"/><polygon class="f" points="180.5 235 180.5 245.6 112.6 245.6 112.6 235 107.9 235 107.9 250.2 185.2 250.2 185.2 235 180.5 235"/><polygon class="g" points="180.1 234.6 180.1 245.2 113 245.2 113 234.6 108.3 234.6 108.3 249.8 184.8 249.8 184.8 234.6 180.1 234.6"/><path class="h" d="M211.4,85.8c-42-6.3-66.9,40.1-68.1,69.8,0,0,4.5-29.4,28.2-46.6,17.4-12.6,42.1-19.2,69-6.9C240.5,102.1,228.3,88.4,211.4,85.8Z"/><path class="b" d="M247.2,223.3H161.6a4.2,4.2,0,0,1-3.8-2.5l-3.2-7.6a6.6,6.6,0,0,0-6.1-4.1H112.8a6.6,6.6,0,0,0-6.1,4l-3,7a16.9,16.9,0,0,0-1.3,6.6V328.2a9.6,9.6,0,0,0,9.7,9.7H247.2a9.6,9.6,0,0,0,9.7-9.7V233A9.7,9.7,0,0,0,247.2,223.3Z"/><rect class="i" x="204.3" y="125.4" width="139.3" height="113.89"/><path class="j" d="M204.3,223.3c76.2,0,112.5-48.5,116.8-97.9h22.5V239.3H204.3Z"/><path class="k" d="M336.4,332.9c1.7.6,6.7.4,6.9-5.1a52.8,52.8,0,0,1-8.8-5.2l-6.5,6a19,19,0,0,1,4.1,4.3C332.3,331.9,334.8,332.5,336.4,332.9Z"/><path class="l" d="M328.2,316.9c-7.7-9.5-13.6-22.4-28.2-22.6l14.2-28-5.5-18.2-14.6-.9c-3.6,19.1-10.5,42.7-8.4,49.5,1.2,3.8,13,15.6,28.2,23.1a70.7,70.7,0,0,1,14.1,8.8l6.5-6A33.9,33.9,0,0,1,328.2,316.9Z"/><path class="m" d="M295.5,302.5c-2.6-2.9-8.5-3.5-6.5-6.8s9.9-9.3,17.9-14.9l7.3-14.5-5.5-18.2-14.6-.9c-3.6,19.1-10.5,42.7-8.4,49.5,1.2,3.8,13,15.6,28.2,23.1,2,1,3.8,1.9,5.4,2.9h0C307,316.2,297.2,304.3,295.5,302.5Z"/><path class="h" d="M343.3,327.8c-.2,5.5-5.2,5.7-6.9,5.1s-4.1-1-4.3,0l-1.6,7.3s-7.4.4-6.9,5.5H336l11.5-12.1S347.2,328.9,343.3,327.8Z"/><path class="h" d="M275.5,339.5c-1-.6.6-5.8-3.3-3.8,0,0-7,4.7-11.6,5.4s-1.7,4.6-1.7,4.6h27.4c2.2-3.5.7-8-.6-10.5C283.9,340.9,276.5,340.1,275.5,339.5Z"/><path class="k" d="M274.2,335.3c1.3.7.6,3.7,1.3,4.2s8.4,1.4,10.2-4.3c-.6-1.2-1.1-2-1.1-2s-.5-.9-1.2-2.5H272.1A30.7,30.7,0,0,1,274.2,335.3Z"/><path class="n" d="M297.5,249c-43.5,14.8-49.8,29.4-49.8,29.4-.6,7.9,2.4,20.6,12.6,36.2,4.9,7.6,10.1,12.8,11.8,16.1h11.3c-2.7-5.8-9.1-20.5-9.8-30.1-.9-12.2-9.4-14.9-9.4-14.9a234.2,234.2,0,0,0,35.7-8.5c17.1-5.8,13.6-15,21.2-22.7Z"/><path class="k" d="M332.1,177.6v6.7a45.5,45.5,0,0,0-15.3,2.6V174.8l13.8-7.7Z"/><path class="o" d="M316.8,174.8v8.7c3.1,0,5.1-2.3,7.1-3.9s3.8-.1,3.9,4.9a27.4,27.4,0,0,1,4.3-.2v-6.7l-1.5-10.5Z"/><path class="p" d="M321.4,157.7c-1.5-2,2.1-7.2,6.8-5.5s5.1,5.6,11,7.2,2.8,9.9-3,11.7c0,0-4.1,3.7-4.1,6.5,0,0-2.9-.8-3.7-5.6,0,0-4.2,1.2-5.3-1.9S321.4,157.7,321.4,157.7Z"/><path class="k" d="M321.4,157.7c-4.8,5.8-9,16.9-6.3,19.9s9.9-.7,11.8-4.4c0,0,1.7,2.3,5.4-2.3s-1.7-4.8-3.9-2.7c0,0-2.9,2.8-4,.9s1.5-4.9,1.7-8.2S321.4,157.7,321.4,157.7Z"/><path class="k" d="M355.9,217.4c4.6-7.7-.6-14.8-4.1-20.9a57.1,57.1,0,0,1-5.1-12v-5.8s-1.6-7.7-2.2-8.3-.9-.6-.9-.6v6s-3.6-1.8-4.2-1.2.5,3.3,4.2,5.5v15Z"/><path class="o" d="M344.5,183.7a5.9,5.9,0,0,0-.9-3.6v15l12.3,22.3a12.5,12.5,0,0,0,1.7-8.4c-3.2-9.3-13.1-18.5-13.1-20Z"/><path class="q" d="M340.8,188.4l-1.4,23.8a40.2,40.2,0,0,0,7.3,5.5l8.9-11.1C351.9,199.5,340.8,188.4,340.8,188.4Z"/><path class="r" d="M348.7,215.2h0c-3.3-3.1-3.3-13.2-1.7-20.1-3.3-3.8-6.2-6.7-6.2-6.7l-1.4,23.8a40.2,40.2,0,0,0,7.3,5.5Z"/><path class="k" d="M346.7,217.7a10.6,10.6,0,0,0,5.1,1.7c4.8,0,5.1-3.4,5.1-9.1a8.2,8.2,0,0,0-1.3-3.7Z"/><path class="o" d="M348.7,215.2l-2,2.5a10.6,10.6,0,0,0,5.1,1.7c2.1,0,3.4-.7,4.1-2C355,218.3,352.2,218.3,348.7,215.2Z"/><path class="q" d="M309.7,190.8c8-6.4,26.8-12.2,32.6,0s.7,36.9-21.2,63.7c0,0-7.7,3.5-27-7.3C294.1,247.2,299.8,198.8,309.7,190.8Z"/><path class="r" d="M301.4,208.4c-4.7,16.8-7.3,38.8-7.3,38.8l3.4,1.8c16-6.7,24.9-32,25.8-44.9Z"/><path class="k" d="M297.4,223.1s-6.9,2.6-10.6,6.8-11.4,4.5-11.4,4.5-1.8-1.8-6.1-1.8c0,0-4.8-3.9-6.7-2.7s4.9,4.3,5.1,6.4-4,3-4,3h-6.3s-1.1,2.4,6,2.4,11.2,3.3,17.1-2.2c0,0,16.5,1.3,21.1-3.2a124.5,124.5,0,0,0,13.7-15.9l-15.4-8.3C299,215.5,298.1,219.1,297.4,223.1Z"/><path class="q" d="M315,188.4c-6.3.1-11.2,9-15.1,23.7l15.4,8.3a52.7,52.7,0,0,0,6.8-12C325.6,199.9,322.7,188.3,315,188.4Z"/><path class="o" d="M315.3,220.4l-15.4-8.3c-.6,2.2-1.1,4.5-1.7,6.9,3-5,15.4,3.7,15.4,3.7S314.8,221.2,315.3,220.4Z"/><path class="o" d="M297.5,238.4a20.7,20.7,0,0,0-9.5-.3l-7.5,1.4S290.9,240.3,297.5,238.4Z"/><rect class="s" x="102.4" y="229.8" width="154.5" height="114.57" rx="8.1"/><path class="t" d="M211.4,85.8c44.6,5.8,53.4,63.4,7.6,107.7a3.1,3.1,0,0,0,.6,4.9l5.8,4a3.2,3.2,0,0,1-1,5.8l-33.3,7.2a3.6,3.6,0,0,1-4.4-3.1l-1.1-31.7c-.1-2.6,3-4.1,5.4-2.6l7,4.5a3.5,3.5,0,0,0,4.7-.6c6.9-8.4,29.2-37.8,30.2-62.7C234.1,88.4,211.4,85.8,211.4,85.8Z"/><path class="u" d="M63.6,168.2l-1.2-1.8"/><path class="v" d="M60.1,162.7a41.6,41.6,0,0,1-5.2-17.8c-1.1-18.9,11.6-37.8,29.6-44s39.8.7,50.8,16.2c1.9,2.6,3.5,6.3,1.8,9.1s-9.2,2.1-12.7-1.4c-11.3-11.6-11.3-33-3.2-47,24.2-41.7,90.9-41.7,126-14.9,19.6,15.1,32.4,40,30.6,64.5s-13.2,44.2-36.7,55.4"/><path class="u" d="M239.1,183.7l-2,.8"/></svg>