<svg xmlns="http://www.w3.org/2000/svg" xmlns:xlink="http://www.w3.org/1999/xlink" viewBox="0 0 400 400"><defs><style>.a{fill:url(#a);}.b{fill:url(#b);}.c{fill:url(#c);}.d{fill:url(#d);}.e{font-size:28.55px;font-family:AdobeArabic-Regular, Adobe Arabic;}.e,.s{fill:#fff;}.f{fill:#1f364c;}.g{fill:#0e71bb;}.h{fill:#005b9f;}.i{fill:#52acea;}.j{fill:#21e2e2;}.k{fill:#ffbc98;}.aa,.l,.m,.p,.x,.y,.z{fill:none;}.m{stroke:#ffbc98;}.m,.p{stroke-width:0.6px;}.n{fill:#80c9ff;}.o{fill:#288ed9;}.p{stroke:#21e2e2;}.q{fill:#137fcf;}.r{fill:#d6eeff;}.t{fill:#71939e;opacity:0.15;}.u{fill:#00aeef;}.v{fill:#2691bc;}.w{fill:#58caed;}.aa,.x,.y,.z{stroke:#f7941d;stroke-miterlimit:10;}.y{stroke-dasharray:4.77 4.77;}.z{stroke-dasharray:4.87 4.87;}.aa{stroke-dasharray:5.04 5.04;}</style><linearGradient id="a" x1="-501.25" y1="400.35" x2="-501.26" y2="400.99" gradientTransform="matrix(-661.87, 332.2, 274.76, 547.43, -441664.44, -52609.15)" gradientUnits="userSpaceOnUse"><stop offset="0" stop-color="#c6e6ff"/><stop offset="1" stop-color="#fff"/></linearGradient><linearGradient id="b" x1="-501.03" y1="402.77" x2="-501.03" y2="402.38" gradientTransform="matrix(531, 0, 0, -95, 266366.06, 38535.44)" gradientUnits="userSpaceOnUse"><stop offset="0" stop-color="#288ed9"/><stop offset="1" stop-color="#137fcf" stop-opacity="0.05"/></linearGradient><linearGradient id="c" x1="-501.27" y1="402.77" x2="-501.27" y2="402.38" xlink:href="#b"/><linearGradient id="d" x1="-501.5" y1="402.77" x2="-501.5" y2="402.38" xlink:href="#b"/></defs><title>type-of-cloud-server</title><path class="a" d="M251.5,333.8c-70.9-7.3-140.1,8.2-140.1,8.2s-72.9,23.7-86.7-65.9S.4,157.3,38.4,135.7c36.5-19.6,64.9-14.8,100.2-35.8,30.9-18.6,45.8-44.2,110.2-50C354,44.7,503.5,358.5,251.5,333.8Z"/><ellipse class="b" cx="319.4" cy="299.9" rx="51.4" ry="9.2"/><ellipse class="c" cx="194" cy="299.9" rx="51.4" ry="9.2"/><ellipse class="d" cx="68.2" cy="299.9" rx="51.4" ry="9.2"/><text class="e" transform="translate(265.5 -40.3)"> یربا روس عاونا*</text><rect class="f" x="28.5" y="214" width="79.3" height="6.16"/><path class="g" d="M27.7,197.3h81.1c1.6,0,2.9,1,2.9,2.1v13.5c0,1.1-1.3,2.1-2.9,2.1H27.7c-1.6,0-2.9-1-2.9-2.1V199.4C24.8,198.3,26.1,197.3,27.7,197.3Z"/><path class="h" d="M26,197.3H54.1V215H26a1.3,1.3,0,0,1-1.2-1.3V198.6A1.3,1.3,0,0,1,26,197.3Z"/><path class="i" d="M79.5,203.6h0a.9.9,0,0,1,.9,1h0a.9.9,0,0,1-.9.9h0a.9.9,0,0,1-.9-.9h0A.9.9,0,0,1,79.5,203.6Z"/><path class="j" d="M81.7,207.3h0a.9.9,0,0,1,.9.9h0a1,1,0,0,1-.9,1h0a1,1,0,0,1-.9-1h0A.9.9,0,0,1,81.7,207.3Z"/><path class="i" d="M83.2,203.6h0a.9.9,0,0,1,.9,1h0a.9.9,0,0,1-.9.9h0a.9.9,0,0,1-.9-.9h0A.9.9,0,0,1,83.2,203.6Z"/><path class="i" d="M85.4,207.3h0a.9.9,0,0,1,.9.9h0a1,1,0,0,1-.9,1h0a1,1,0,0,1-.9-1h0A.9.9,0,0,1,85.4,207.3Z"/><path class="k" d="M86.9,203.6h0a.9.9,0,0,1,.9,1h0a.9.9,0,0,1-.9.9h0a1,1,0,0,1-1-.9h0A1,1,0,0,1,86.9,203.6Z"/><path class="i" d="M89.1,207.3h0a.9.9,0,0,1,.9.9h0a1,1,0,0,1-.9,1h0a1.1,1.1,0,0,1-1-1h0A1,1,0,0,1,89.1,207.3Z"/><path class="i" d="M90.5,203.6h0a1,1,0,0,1,1,1h0a1,1,0,0,1-1,.9h0a.9.9,0,0,1-.9-.9h0A.9.9,0,0,1,90.5,203.6Z"/><path class="j" d="M92.7,207.3h0a.9.9,0,0,1,1,.9h0a1,1,0,0,1-1,1h0a1,1,0,0,1-.9-1h0A.9.9,0,0,1,92.7,207.3Z"/><path class="i" d="M94.2,203.6h0a.9.9,0,0,1,.9,1h0a.9.9,0,0,1-.9.9h0a.9.9,0,0,1-.9-.9h0A.9.9,0,0,1,94.2,203.6Z"/><path class="i" d="M96.4,207.3h0a.9.9,0,0,1,.9.9h0a1,1,0,0,1-.9,1h0a1,1,0,0,1-.9-1h0A.9.9,0,0,1,96.4,207.3Z"/><circle class="l" cx="102.9" cy="206.2" r="1.6"/><circle class="m" cx="102.9" cy="206.2" r="1.3"/><path class="i" d="M75.2,202.9h0a.8.8,0,0,1,.7.7v5.3a.7.7,0,0,1-.7.6h0a.7.7,0,0,1-.7-.6v-5.3A.8.8,0,0,1,75.2,202.9Z"/><path class="i" d="M72.4,202.9h0a.8.8,0,0,1,.7.7v5.3a.7.7,0,0,1-.7.6h0a.7.7,0,0,1-.7-.6v-5.3A.8.8,0,0,1,72.4,202.9Z"/><rect class="h" x="58.5" y="202.9" width="11.1" height="2.78"/><rect class="h" x="58.5" y="206.8" width="11.1" height="2.78"/><path class="k" d="M74.5,204.3h1.4v4.6a.7.7,0,0,1-.7.6h0a.7.7,0,0,1-.7-.6v-4.6Z"/><path class="j" d="M71.7,207h1.4v1.9a.7.7,0,0,1-.7.6h0a.7.7,0,0,1-.7-.6h0V207Z"/><rect class="n" x="58.5" y="202.9" width="2.8" height="2.78"/><rect class="n" x="58.5" y="206.8" width="2.8" height="2.78"/><rect class="o" x="62.7" y="204" width="5.6" height="0.7"/><rect class="o" x="62.7" y="207.8" width="5.6" height="0.7"/><circle class="l" cx="102.9" cy="206.2" r="3.3"/><circle class="p" cx="102.9" cy="206.2" r="3"/><path class="o" d="M46.2,208.6h0a1.1,1.1,0,0,1,1.1,1.2h0a1.1,1.1,0,0,1-1.1,1.1h0a1.1,1.1,0,0,1-1.2-1.1h0A1.2,1.2,0,0,1,46.2,208.6Z"/><path class="q" d="M46.3,201.9h0a.5.5,0,0,1,.5.5v4.5a.6.6,0,0,1-.5.6h0a.6.6,0,0,1-.6-.6v-4.5A.6.6,0,0,1,46.3,201.9Z"/><path class="r" d="M42.7,208.6h0a1.2,1.2,0,0,1,1.2,1.2h0a1.2,1.2,0,0,1-1.2,1.1h0a1.1,1.1,0,0,1-1.1-1.1h0A1.1,1.1,0,0,1,42.7,208.6Z"/><path class="s" d="M42.8,204h0a.5.5,0,0,1,.5.5v2.4a.6.6,0,0,1-.5.6h0a.6.6,0,0,1-.5-.6v-2.4A.5.5,0,0,1,42.8,204Z"/><path class="o" d="M39.2,208.6h0a1.2,1.2,0,0,1,1.2,1.2h0a1.1,1.1,0,0,1-1.2,1.1h0a1.1,1.1,0,0,1-1.1-1.1h0A1.1,1.1,0,0,1,39.2,208.6Z"/><path class="q" d="M39.3,201.1h0a.5.5,0,0,1,.5.5v5.3a.6.6,0,0,1-.5.6h0a.6.6,0,0,1-.5-.6v-5.3A.5.5,0,0,1,39.3,201.1Z"/><path class="k" d="M35.8,208.6h0a1.1,1.1,0,0,1,1.1,1.2h0a1.1,1.1,0,0,1-1.1,1.1h0a1.1,1.1,0,0,1-1.2-1.1h0A1.2,1.2,0,0,1,35.8,208.6Z"/><path class="k" d="M35.8,202.4h0a.5.5,0,0,1,.5.5v4a.6.6,0,0,1-.5.6h0a.6.6,0,0,1-.5-.6v-4A.5.5,0,0,1,35.8,202.4Z"/><path class="j" d="M32.3,208.6h0a1.1,1.1,0,0,1,1.1,1.2h0a1.1,1.1,0,0,1-1.1,1.1h0a1.1,1.1,0,0,1-1.2-1.1h0A1.2,1.2,0,0,1,32.3,208.6Z"/><path class="j" d="M32.3,204.7h0a.6.6,0,0,1,.6.5v1.7a.6.6,0,0,1-.6.6h0a.6.6,0,0,1-.5-.6v-1.7A.5.5,0,0,1,32.3,204.7Z"/><rect class="f" x="28.5" y="235" width="79.3" height="6.16"/><path class="g" d="M27.7,218.4h81.1c1.6,0,2.9.9,2.9,2.1v13.4c0,1.2-1.3,2.1-2.9,2.1H27.7c-1.6,0-2.9-.9-2.9-2.1V220.5C24.8,219.3,26.1,218.4,27.7,218.4Z"/><path class="h" d="M26,218.4H54.1V236H26a1.2,1.2,0,0,1-1.2-1.2V219.6A1.2,1.2,0,0,1,26,218.4Z"/><path class="i" d="M79.5,224.7h0a.9.9,0,0,1,.9.9h0a.9.9,0,0,1-.9.9h0a.9.9,0,0,1-.9-.9h0A.9.9,0,0,1,79.5,224.7Z"/><path class="j" d="M81.7,228.4h0a.9.9,0,0,1,.9.9h0a.9.9,0,0,1-.9.9h0a.9.9,0,0,1-.9-.9h0A.9.9,0,0,1,81.7,228.4Z"/><path class="i" d="M83.2,224.7h0a.9.9,0,0,1,.9.9h0a.9.9,0,0,1-.9.9h0a.9.9,0,0,1-.9-.9h0A.9.9,0,0,1,83.2,224.7Z"/><path class="i" d="M85.4,228.4h0a.9.9,0,0,1,.9.9h0a.9.9,0,0,1-.9.9h0a.9.9,0,0,1-.9-.9h0A.9.9,0,0,1,85.4,228.4Z"/><path class="k" d="M86.9,224.7h0a.9.9,0,0,1,.9.9h0a.9.9,0,0,1-.9.9h0a1,1,0,0,1-1-.9h0A1,1,0,0,1,86.9,224.7Z"/><path class="i" d="M89.1,228.4h0a.9.9,0,0,1,.9.9h0a.9.9,0,0,1-.9.9h0a1,1,0,0,1-1-.9h0A1,1,0,0,1,89.1,228.4Z"/><path class="i" d="M90.5,224.7h0a1,1,0,0,1,1,.9h0a1,1,0,0,1-1,.9h0a.9.9,0,0,1-.9-.9h0A.9.9,0,0,1,90.5,224.7Z"/><path class="j" d="M92.7,228.4h0a.9.9,0,0,1,1,.9h0a.9.9,0,0,1-1,.9h0a.9.9,0,0,1-.9-.9h0A.9.9,0,0,1,92.7,228.4Z"/><path class="i" d="M94.2,224.7h0a.9.9,0,0,1,.9.9h0a.9.9,0,0,1-.9.9h0a.9.9,0,0,1-.9-.9h0A.9.9,0,0,1,94.2,224.7Z"/><path class="i" d="M96.4,228.4h0a.9.9,0,0,1,.9.9h0a.9.9,0,0,1-.9.9h0a.9.9,0,0,1-.9-.9h0A.9.9,0,0,1,96.4,228.4Z"/><circle class="l" cx="102.9" cy="227.3" r="1.6"/><circle class="m" cx="102.9" cy="227.3" r="1.3"/><path class="i" d="M75.2,224h0a.7.7,0,0,1,.7.7v5.2a.7.7,0,0,1-.7.7h0a.7.7,0,0,1-.7-.7v-5.2A.7.7,0,0,1,75.2,224Z"/><path class="i" d="M72.4,224h0a.7.7,0,0,1,.7.7v5.2a.7.7,0,0,1-.7.7h0a.7.7,0,0,1-.7-.7v-5.2A.7.7,0,0,1,72.4,224Z"/><rect class="h" x="58.5" y="224" width="11.1" height="2.78"/><rect class="h" x="58.5" y="227.8" width="11.1" height="2.78"/><path class="k" d="M74.5,225.4h1.4v4.5a.7.7,0,0,1-.7.7h0a.7.7,0,0,1-.7-.7v-4.5Z"/><path class="j" d="M71.7,228h1.4v1.9a.7.7,0,0,1-.7.7h0a.7.7,0,0,1-.7-.7h0V228Z"/><rect class="n" x="58.5" y="224" width="2.8" height="2.78"/><rect class="n" x="58.5" y="227.8" width="2.8" height="2.78"/><rect class="o" x="62.7" y="225" width="5.6" height="0.7"/><rect class="o" x="62.7" y="228.9" width="5.6" height="0.7"/><circle class="l" cx="102.9" cy="227.3" r="3.3"/><circle class="p" cx="102.9" cy="227.3" r="3"/><path class="o" d="M46.2,230h0a1.1,1.1,0,0,1,1.1,1.1h0a1.2,1.2,0,0,1-1.1,1.2h0a1.2,1.2,0,0,1-1.2-1.2h0A1.1,1.1,0,0,1,46.2,230Z"/><path class="q" d="M46.3,223.3h0a.5.5,0,0,1,.5.5v4.5a.5.5,0,0,1-.5.5h0a.6.6,0,0,1-.6-.5v-4.5A.6.6,0,0,1,46.3,223.3Z"/><path class="r" d="M42.7,230h0a1.2,1.2,0,0,1,1.2,1.1h0a1.3,1.3,0,0,1-1.2,1.2h0a1.2,1.2,0,0,1-1.1-1.2h0A1.1,1.1,0,0,1,42.7,230Z"/><path class="s" d="M42.8,225.3h0a.6.6,0,0,1,.5.6v2.4a.5.5,0,0,1-.5.5h0a.5.5,0,0,1-.5-.5v-2.4A.6.6,0,0,1,42.8,225.3Z"/><path class="o" d="M39.2,230h0a1.1,1.1,0,0,1,1.2,1.1h0a1.2,1.2,0,0,1-1.2,1.2h0a1.2,1.2,0,0,1-1.1-1.2h0A1.1,1.1,0,0,1,39.2,230Z"/><path class="q" d="M39.3,222.5h0a.5.5,0,0,1,.5.5v5.3a.5.5,0,0,1-.5.5h0a.5.5,0,0,1-.5-.5V223A.5.5,0,0,1,39.3,222.5Z"/><path class="k" d="M35.8,230h0a1.1,1.1,0,0,1,1.1,1.1h0a1.2,1.2,0,0,1-1.1,1.2h0a1.2,1.2,0,0,1-1.2-1.2h0A1.1,1.1,0,0,1,35.8,230Z"/><path class="k" d="M35.8,223.8h0a.5.5,0,0,1,.5.5v4a.5.5,0,0,1-.5.5h0a.5.5,0,0,1-.5-.5v-4A.5.5,0,0,1,35.8,223.8Z"/><path class="j" d="M32.3,230h0a1.1,1.1,0,0,1,1.1,1.1h0a1.2,1.2,0,0,1-1.1,1.2h0a1.2,1.2,0,0,1-1.2-1.2h0A1.1,1.1,0,0,1,32.3,230Z"/><path class="j" d="M32.3,226h0a.6.6,0,0,1,.6.6v1.7a.6.6,0,0,1-.6.5h0a.5.5,0,0,1-.5-.5v-1.7A.6.6,0,0,1,32.3,226Z"/><rect class="f" x="28.5" y="256" width="79.3" height="6.16"/><path class="g" d="M27.7,239.4h81.1c1.6,0,2.9.9,2.9,2.1V255c0,1.1-1.3,2.1-2.9,2.1H27.7c-1.6,0-2.9-1-2.9-2.1V241.5C24.8,240.3,26.1,239.4,27.7,239.4Z"/><path class="h" d="M26,239.4H54.1v17.7H26a1.3,1.3,0,0,1-1.2-1.3V240.7A1.3,1.3,0,0,1,26,239.4Z"/><path class="i" d="M79.5,245.7h0a.9.9,0,0,1,.9.9h0a1,1,0,0,1-.9,1h0a1,1,0,0,1-.9-1h0A.9.9,0,0,1,79.5,245.7Z"/><path class="j" d="M81.7,249.4h0a.9.9,0,0,1,.9.9h0a.9.9,0,0,1-.9.9h0a.9.9,0,0,1-.9-.9h0A.9.9,0,0,1,81.7,249.4Z"/><path class="i" d="M83.2,245.7h0a.9.9,0,0,1,.9.9h0a1,1,0,0,1-.9,1h0a1,1,0,0,1-.9-1h0A.9.9,0,0,1,83.2,245.7Z"/><path class="i" d="M85.4,249.4h0a.9.9,0,0,1,.9.9h0a.9.9,0,0,1-.9.9h0a.9.9,0,0,1-.9-.9h0A.9.9,0,0,1,85.4,249.4Z"/><path class="k" d="M86.9,245.7h0a.9.9,0,0,1,.9.9h0a1,1,0,0,1-.9,1h0a1.1,1.1,0,0,1-1-1h0A1,1,0,0,1,86.9,245.7Z"/><path class="i" d="M89.1,249.4h0a.9.9,0,0,1,.9.9h0a.9.9,0,0,1-.9.9h0a1,1,0,0,1-1-.9h0A1,1,0,0,1,89.1,249.4Z"/><path class="i" d="M90.5,245.7h0a1,1,0,0,1,1,.9h0a1.1,1.1,0,0,1-1,1h0a1,1,0,0,1-.9-1h0A.9.9,0,0,1,90.5,245.7Z"/><path class="j" d="M92.7,249.4h0a.9.9,0,0,1,1,.9h0a.9.9,0,0,1-1,.9h0a.9.9,0,0,1-.9-.9h0A.9.9,0,0,1,92.7,249.4Z"/><path class="i" d="M94.2,245.7h0a.9.9,0,0,1,.9.9h0a1,1,0,0,1-.9,1h0a1,1,0,0,1-.9-1h0A.9.9,0,0,1,94.2,245.7Z"/><path class="i" d="M96.4,249.4h0a.9.9,0,0,1,.9.9h0a.9.9,0,0,1-.9.9h0a.9.9,0,0,1-.9-.9h0A.9.9,0,0,1,96.4,249.4Z"/><circle class="l" cx="102.9" cy="248.3" r="1.6"/><circle class="m" cx="102.9" cy="248.3" r="1.3"/><path class="i" d="M75.2,245h0a.7.7,0,0,1,.7.7v5.2a.7.7,0,0,1-.7.7h0a.7.7,0,0,1-.7-.7v-5.2A.7.7,0,0,1,75.2,245Z"/><path class="i" d="M72.4,245h0a.7.7,0,0,1,.7.7v5.2a.7.7,0,0,1-.7.7h0a.7.7,0,0,1-.7-.7v-5.2A.7.7,0,0,1,72.4,245Z"/><rect class="h" x="58.5" y="245" width="11.1" height="2.78"/><rect class="h" x="58.5" y="248.9" width="11.1" height="2.78"/><path class="k" d="M74.5,246.4h1.4v4.5a.7.7,0,0,1-.7.7h0a.7.7,0,0,1-.7-.7v-4.5Z"/><path class="j" d="M71.7,249.1h1.4v1.8a.7.7,0,0,1-.7.7h0a.7.7,0,0,1-.7-.7h0v-1.8Z"/><rect class="n" x="58.5" y="245" width="2.8" height="2.78"/><rect class="n" x="58.5" y="248.9" width="2.8" height="2.78"/><rect class="o" x="62.7" y="246.1" width="5.6" height="0.7"/><rect class="o" x="62.7" y="249.9" width="5.6" height="0.7"/><circle class="l" cx="102.9" cy="248.3" r="3.3"/><circle class="p" cx="102.9" cy="248.3" r="3"/><path class="o" d="M46.2,251h0a1.1,1.1,0,0,1,1.1,1.2h0a1.1,1.1,0,0,1-1.1,1.1h0a1.1,1.1,0,0,1-1.2-1.1h0A1.2,1.2,0,0,1,46.2,251Z"/><path class="q" d="M46.3,244.3h0a.5.5,0,0,1,.5.5v4.5a.6.6,0,0,1-.5.6h0a.6.6,0,0,1-.6-.6v-4.5A.6.6,0,0,1,46.3,244.3Z"/><path class="r" d="M42.7,251h0a1.2,1.2,0,0,1,1.2,1.2h0a1.2,1.2,0,0,1-1.2,1.1h0a1.1,1.1,0,0,1-1.1-1.1h0A1.1,1.1,0,0,1,42.7,251Z"/><path class="s" d="M42.8,246.4h0a.5.5,0,0,1,.5.5v2.4a.6.6,0,0,1-.5.6h0a.6.6,0,0,1-.5-.6v-2.4A.5.5,0,0,1,42.8,246.4Z"/><path class="o" d="M39.2,251h0a1.2,1.2,0,0,1,1.2,1.2h0a1.1,1.1,0,0,1-1.2,1.1h0a1.1,1.1,0,0,1-1.1-1.1h0A1.1,1.1,0,0,1,39.2,251Z"/><path class="q" d="M39.3,243.5h0a.5.5,0,0,1,.5.5v5.3a.6.6,0,0,1-.5.6h0a.6.6,0,0,1-.5-.6V244A.5.5,0,0,1,39.3,243.5Z"/><path class="k" d="M35.8,251h0a1.1,1.1,0,0,1,1.1,1.2h0a1.1,1.1,0,0,1-1.1,1.1h0a1.1,1.1,0,0,1-1.2-1.1h0A1.2,1.2,0,0,1,35.8,251Z"/><path class="k" d="M35.8,244.8h0a.5.5,0,0,1,.5.5v4a.6.6,0,0,1-.5.6h0a.6.6,0,0,1-.5-.6v-4A.5.5,0,0,1,35.8,244.8Z"/><path class="j" d="M32.3,251h0a1.1,1.1,0,0,1,1.1,1.2h0a1.1,1.1,0,0,1-1.1,1.1h0a1.1,1.1,0,0,1-1.2-1.1h0A1.2,1.2,0,0,1,32.3,251Z"/><path class="j" d="M32.3,247.1h0a.6.6,0,0,1,.6.5v1.7a.6.6,0,0,1-.6.6h0a.6.6,0,0,1-.5-.6v-1.7A.5.5,0,0,1,32.3,247.1Z"/><rect class="f" x="28.5" y="277.1" width="79.3" height="6.16"/><path class="g" d="M27.7,260.4h81.1c1.6,0,2.9,1,2.9,2.1V276c0,1.2-1.3,2.1-2.9,2.1H27.7c-1.6,0-2.9-.9-2.9-2.1V262.5C24.8,261.4,26.1,260.4,27.7,260.4Z"/><path class="h" d="M26,260.4H54.1v17.7H26a1.3,1.3,0,0,1-1.2-1.2V261.7A1.3,1.3,0,0,1,26,260.4Z"/><path class="i" d="M79.5,266.8h0a.9.9,0,0,1,.9.9h0a.9.9,0,0,1-.9.9h0a.9.9,0,0,1-.9-.9h0A.9.9,0,0,1,79.5,266.8Z"/><path class="j" d="M81.7,270.4h0a1,1,0,0,1,.9,1h0a.9.9,0,0,1-.9.9h0a.9.9,0,0,1-.9-.9h0A1,1,0,0,1,81.7,270.4Z"/><path class="i" d="M83.2,266.8h0a.9.9,0,0,1,.9.9h0a.9.9,0,0,1-.9.9h0a.9.9,0,0,1-.9-.9h0A.9.9,0,0,1,83.2,266.8Z"/><path class="i" d="M85.4,270.4h0a1,1,0,0,1,.9,1h0a.9.9,0,0,1-.9.9h0a.9.9,0,0,1-.9-.9h0A1,1,0,0,1,85.4,270.4Z"/><path class="k" d="M86.9,266.8h0a.9.9,0,0,1,.9.9h0a.9.9,0,0,1-.9.9h0a1,1,0,0,1-1-.9h0A1,1,0,0,1,86.9,266.8Z"/><path class="i" d="M89.1,270.4h0a1,1,0,0,1,.9,1h0a.9.9,0,0,1-.9.9h0a1,1,0,0,1-1-.9h0A1.1,1.1,0,0,1,89.1,270.4Z"/><path class="i" d="M90.5,266.8h0a1,1,0,0,1,1,.9h0a1,1,0,0,1-1,.9h0a.9.9,0,0,1-.9-.9h0A.9.9,0,0,1,90.5,266.8Z"/><path class="j" d="M92.7,270.4h0a1,1,0,0,1,1,1h0a.9.9,0,0,1-1,.9h0a.9.9,0,0,1-.9-.9h0A1,1,0,0,1,92.7,270.4Z"/><path class="i" d="M94.2,266.8h0a.9.9,0,0,1,.9.9h0a.9.9,0,0,1-.9.9h0a.9.9,0,0,1-.9-.9h0A.9.9,0,0,1,94.2,266.8Z"/><path class="i" d="M96.4,270.4h0a1,1,0,0,1,.9,1h0a.9.9,0,0,1-.9.9h0a.9.9,0,0,1-.9-.9h0A1,1,0,0,1,96.4,270.4Z"/><circle class="l" cx="102.9" cy="269.4" r="1.6"/><circle class="m" cx="102.9" cy="269.4" r="1.3"/><path class="i" d="M75.2,266.1h0a.7.7,0,0,1,.7.7V272a.7.7,0,0,1-.7.7h0a.7.7,0,0,1-.7-.7v-5.2A.7.7,0,0,1,75.2,266.1Z"/><path class="i" d="M72.4,266.1h0a.7.7,0,0,1,.7.7V272a.7.7,0,0,1-.7.7h0a.7.7,0,0,1-.7-.7v-5.2A.7.7,0,0,1,72.4,266.1Z"/><rect class="h" x="58.5" y="266.1" width="11.1" height="2.78"/><rect class="h" x="58.5" y="269.9" width="11.1" height="2.78"/><path class="k" d="M74.5,267.5h1.4V272a.7.7,0,0,1-.7.7h0a.7.7,0,0,1-.7-.7v-4.5Z"/><path class="j" d="M71.7,270.1h1.4V272a.7.7,0,0,1-.7.7h0a.7.7,0,0,1-.7-.7h0v-1.9Z"/><rect class="n" x="58.5" y="266.1" width="2.8" height="2.78"/><rect class="n" x="58.5" y="269.9" width="2.8" height="2.78"/><rect class="o" x="62.7" y="267.1" width="5.6" height="0.7"/><rect class="o" x="62.7" y="270.9" width="5.6" height="0.7"/><circle class="l" cx="102.9" cy="269.4" r="3.3"/><circle class="p" cx="102.9" cy="269.4" r="3"/><path class="o" d="M46.2,272.1h0a1.1,1.1,0,0,1,1.1,1.1h0a1.1,1.1,0,0,1-1.1,1.1h0a1.1,1.1,0,0,1-1.2-1.1h0A1.1,1.1,0,0,1,46.2,272.1Z"/><path class="q" d="M46.3,265.3h0a.6.6,0,0,1,.5.6v4.5a.5.5,0,0,1-.5.5h0a.6.6,0,0,1-.6-.5v-4.5A.6.6,0,0,1,46.3,265.3Z"/><path class="r" d="M42.7,272.1h0a1.2,1.2,0,0,1,1.2,1.1h0a1.2,1.2,0,0,1-1.2,1.1h0a1.1,1.1,0,0,1-1.1-1.1h0A1.1,1.1,0,0,1,42.7,272.1Z"/><path class="s" d="M42.8,267.4h0a.5.5,0,0,1,.5.5v2.5a.5.5,0,0,1-.5.5h0a.5.5,0,0,1-.5-.5v-2.5A.5.5,0,0,1,42.8,267.4Z"/><path class="o" d="M39.2,272.1h0a1.1,1.1,0,0,1,1.2,1.1h0a1.1,1.1,0,0,1-1.2,1.1h0a1.1,1.1,0,0,1-1.1-1.1h0A1.1,1.1,0,0,1,39.2,272.1Z"/><path class="q" d="M39.3,264.5h0a.6.6,0,0,1,.5.6v5.3a.5.5,0,0,1-.5.5h0a.5.5,0,0,1-.5-.5v-5.3A.6.6,0,0,1,39.3,264.5Z"/><path class="k" d="M35.8,272.1h0a1.1,1.1,0,0,1,1.1,1.1h0a1.1,1.1,0,0,1-1.1,1.1h0a1.1,1.1,0,0,1-1.2-1.1h0A1.1,1.1,0,0,1,35.8,272.1Z"/><path class="k" d="M35.8,265.9h0a.5.5,0,0,1,.5.5v4a.5.5,0,0,1-.5.5h0a.5.5,0,0,1-.5-.5v-4A.5.5,0,0,1,35.8,265.9Z"/><path class="j" d="M32.3,272.1h0a1.1,1.1,0,0,1,1.1,1.1h0a1.1,1.1,0,0,1-1.1,1.1h0a1.1,1.1,0,0,1-1.2-1.1h0A1.1,1.1,0,0,1,32.3,272.1Z"/><path class="j" d="M32.3,268.1h0a.6.6,0,0,1,.6.5v1.8a.6.6,0,0,1-.6.5h0a.5.5,0,0,1-.5-.5v-1.8A.6.6,0,0,1,32.3,268.1Z"/><path class="g" d="M27.7,281.5h81.1c1.6,0,2.9.9,2.9,2.1V297c0,1.2-1.3,2.1-2.9,2.1H27.7c-1.6,0-2.9-.9-2.9-2.1V283.6C24.8,282.4,26.1,281.5,27.7,281.5Z"/><path class="h" d="M26,281.5H54.1v17.6H26a1.2,1.2,0,0,1-1.2-1.2V282.7A1.2,1.2,0,0,1,26,281.5Z"/><path class="i" d="M79.5,287.8h0a.9.9,0,0,1,.9.9h0a.9.9,0,0,1-.9.9h0a.9.9,0,0,1-.9-.9h0A.9.9,0,0,1,79.5,287.8Z"/><path class="j" d="M81.7,291.5h0a.9.9,0,0,1,.9.9h0a.9.9,0,0,1-.9.9h0a.9.9,0,0,1-.9-.9h0A.9.9,0,0,1,81.7,291.5Z"/><path class="i" d="M83.2,287.8h0a.9.9,0,0,1,.9.9h0a.9.9,0,0,1-.9.9h0a.9.9,0,0,1-.9-.9h0A.9.9,0,0,1,83.2,287.8Z"/><path class="i" d="M85.4,291.5h0a.9.9,0,0,1,.9.9h0a.9.9,0,0,1-.9.9h0a.9.9,0,0,1-.9-.9h0A.9.9,0,0,1,85.4,291.5Z"/><path class="k" d="M86.9,287.8h0a.9.9,0,0,1,.9.9h0a.9.9,0,0,1-.9.9h0a1,1,0,0,1-1-.9h0A1,1,0,0,1,86.9,287.8Z"/><path class="i" d="M89.1,291.5h0a.9.9,0,0,1,.9.9h0a.9.9,0,0,1-.9.9h0a1,1,0,0,1-1-.9h0A1,1,0,0,1,89.1,291.5Z"/><path class="i" d="M90.5,287.8h0a1,1,0,0,1,1,.9h0a1,1,0,0,1-1,.9h0a.9.9,0,0,1-.9-.9h0A.9.9,0,0,1,90.5,287.8Z"/><path class="j" d="M92.7,291.5h0a.9.9,0,0,1,1,.9h0a.9.9,0,0,1-1,.9h0a.9.9,0,0,1-.9-.9h0A.9.9,0,0,1,92.7,291.5Z"/><path class="i" d="M94.2,287.8h0a.9.9,0,0,1,.9.9h0a.9.9,0,0,1-.9.9h0a.9.9,0,0,1-.9-.9h0A.9.9,0,0,1,94.2,287.8Z"/><path class="i" d="M96.4,291.5h0a.9.9,0,0,1,.9.9h0a.9.9,0,0,1-.9.9h0a.9.9,0,0,1-.9-.9h0A.9.9,0,0,1,96.4,291.5Z"/><circle class="l" cx="102.9" cy="290.4" r="1.6"/><circle class="m" cx="102.9" cy="290.4" r="1.3"/><path class="i" d="M75.2,287.1h0a.7.7,0,0,1,.7.7V293a.7.7,0,0,1-.7.7h0a.7.7,0,0,1-.7-.7v-5.2A.7.7,0,0,1,75.2,287.1Z"/><path class="i" d="M72.4,287.1h0a.7.7,0,0,1,.7.7V293a.7.7,0,0,1-.7.7h0a.7.7,0,0,1-.7-.7v-5.2A.7.7,0,0,1,72.4,287.1Z"/><rect class="h" x="58.5" y="287.1" width="11.1" height="2.78"/><rect class="h" x="58.5" y="290.9" width="11.1" height="2.78"/><path class="k" d="M74.5,288.5h1.4V293a.7.7,0,0,1-.7.7h0a.7.7,0,0,1-.7-.7v-4.5Z"/><path class="j" d="M71.7,291.1h1.4V293a.7.7,0,0,1-.7.7h0a.7.7,0,0,1-.7-.7h0v-1.9Z"/><rect class="n" x="58.5" y="287.1" width="2.8" height="2.78"/><rect class="n" x="58.5" y="290.9" width="2.8" height="2.78"/><rect class="o" x="62.7" y="288.2" width="5.6" height="0.7"/><rect class="o" x="62.7" y="292" width="5.6" height="0.7"/><circle class="l" cx="102.9" cy="290.4" r="3.3"/><circle class="p" cx="102.9" cy="290.4" r="3"/><path class="o" d="M46.2,292.8h0a1.1,1.1,0,0,1,1.1,1.1h0a1.1,1.1,0,0,1-1.1,1.2h0A1.2,1.2,0,0,1,45,294h0A1.1,1.1,0,0,1,46.2,292.8Z"/><path class="q" d="M46.3,286.1h0a.5.5,0,0,1,.5.5v4.5a.5.5,0,0,1-.5.5h0a.6.6,0,0,1-.6-.5v-4.5A.6.6,0,0,1,46.3,286.1Z"/><path class="r" d="M42.7,292.8h0a1.2,1.2,0,0,1,1.2,1.1h0a1.2,1.2,0,0,1-1.2,1.2h0a1.1,1.1,0,0,1-1.1-1.2h0A1.1,1.1,0,0,1,42.7,292.8Z"/><path class="s" d="M42.8,288.2h0a.5.5,0,0,1,.5.5v2.4a.5.5,0,0,1-.5.5h0a.5.5,0,0,1-.5-.5v-2.4A.5.5,0,0,1,42.8,288.2Z"/><path class="o" d="M39.2,292.8h0a1.1,1.1,0,0,1,1.2,1.1h0a1.2,1.2,0,0,1-1.2,1.2h0a1.1,1.1,0,0,1-1.1-1.2h0A1.1,1.1,0,0,1,39.2,292.8Z"/><path class="q" d="M39.3,285.3h0a.5.5,0,0,1,.5.5v5.3a.5.5,0,0,1-.5.5h0a.5.5,0,0,1-.5-.5v-5.3A.5.5,0,0,1,39.3,285.3Z"/><path class="k" d="M35.8,292.8h0a1.1,1.1,0,0,1,1.1,1.1h0a1.1,1.1,0,0,1-1.1,1.2h0a1.2,1.2,0,0,1-1.2-1.2h0A1.1,1.1,0,0,1,35.8,292.8Z"/><path class="k" d="M35.8,286.6h0a.5.5,0,0,1,.5.5v4a.5.5,0,0,1-.5.5h0a.5.5,0,0,1-.5-.5v-4A.5.5,0,0,1,35.8,286.6Z"/><path class="j" d="M32.3,292.8h0a1.1,1.1,0,0,1,1.1,1.1h0a1.1,1.1,0,0,1-1.1,1.2h0a1.2,1.2,0,0,1-1.2-1.2h0A1.1,1.1,0,0,1,32.3,292.8Z"/><path class="j" d="M32.3,288.8h0a.6.6,0,0,1,.6.6v1.7a.6.6,0,0,1-.6.5h0a.5.5,0,0,1-.5-.5v-1.7A.6.6,0,0,1,32.3,288.8Z"/><path class="t" d="M117.4,133.9a12.4,12.4,0,0,0-5.5,1.3,20.4,20.4,0,0,0-20.3-19.1,19.4,19.4,0,0,0-7.3,1.4,23,23,0,0,0-44.4,7.6h-.1a17.2,17.2,0,0,0,0,34.4h77.6a12.8,12.8,0,0,0,0-25.6ZM74.1,146.7H72.9l.9-.5Z"/><path class="u" d="M112.7,129.7a12.7,12.7,0,0,0-5.5,1.3,20.2,20.2,0,0,0-27.6-17.7,23,23,0,0,0-44.4,7.6h0a17.2,17.2,0,1,0,0,34.4h77.5a12.8,12.8,0,0,0,0-25.6ZM69.4,142.5H68.2l1-.5Z"/><path class="t" d="M241.5,136.1v-1a15.7,15.7,0,0,0-15.7-15.8,15.1,15.1,0,0,0-4.8.8v-.2a19.5,19.5,0,0,0-38-6.2,14.4,14.4,0,0,0-7.7-2.2,15.1,15.1,0,0,0-15.1,15.1,24.6,24.6,0,0,0,.2,2.8,15.1,15.1,0,0,0,2.2,30.1h75.1a12,12,0,0,0,3.8-23.4Z"/><path class="v" d="M236.8,131.9c0-.4.1-.7.1-1a15.8,15.8,0,0,0-15.8-15.8,14.5,14.5,0,0,0-4.7.8v-.2a19.5,19.5,0,0,0-38-6.2,14.8,14.8,0,0,0-7.8-2.2,15.2,15.2,0,0,0-15.1,15.1,12.7,12.7,0,0,0,.3,2.8,15.1,15.1,0,0,0,2.2,30.1h75a12.1,12.1,0,0,0,12-12.1A11.9,11.9,0,0,0,236.8,131.9Z"/><path class="t" d="M360.4,127a17,17,0,0,0-7.8,1.9,15.5,15.5,0,0,0-13.8-8.2,16.5,16.5,0,0,0-6.3,1.3,22.8,22.8,0,0,0-44.2,3.1,17.2,17.2,0,0,0-6-1,18.2,18.2,0,0,0,0,36.3h78.1a16.7,16.7,0,0,0,0-33.4Z"/><path class="w" d="M355.7,122.8a16.6,16.6,0,0,0-7.7,1.9,15.8,15.8,0,0,0-13.8-8.2,17,17,0,0,0-6.4,1.3,22.8,22.8,0,0,0-44.2,3.1,17,17,0,0,0-5.9-1,18.2,18.2,0,1,0,0,36.3h78a16.7,16.7,0,0,0,0-33.4Z"/><line class="x" x1="68.2" y1="161.9" x2="68.2" y2="164.4"/><line class="y" x1="68.2" y1="169.1" x2="68.2" y2="185.8"/><line class="x" x1="68.2" y1="188.2" x2="68.2" y2="190.7"/><rect class="f" x="154.2" y="256" width="79.3" height="6.16"/><path class="g" d="M153.4,239.4h81.1c1.6,0,2.9.9,2.9,2.1V255c0,1.1-1.3,2.1-2.9,2.1H153.4c-1.6,0-2.9-1-2.9-2.1V241.5C150.5,240.3,151.8,239.4,153.4,239.4Z"/><path class="h" d="M151.8,239.4h28v17.7h-28a1.3,1.3,0,0,1-1.3-1.3V240.7A1.3,1.3,0,0,1,151.8,239.4Z"/><path class="i" d="M205.2,245.7h0a.9.9,0,0,1,.9.9h0a1,1,0,0,1-.9,1h0a1,1,0,0,1-.9-1h0A.9.9,0,0,1,205.2,245.7Z"/><path class="j" d="M207.4,249.4h0a.9.9,0,0,1,.9.9h0a.9.9,0,0,1-.9.9h0a.9.9,0,0,1-.9-.9h0A.9.9,0,0,1,207.4,249.4Z"/><path class="i" d="M208.9,245.7h0a.9.9,0,0,1,.9.9h0a1,1,0,0,1-.9,1h0a1,1,0,0,1-.9-1h0A.9.9,0,0,1,208.9,245.7Z"/><path class="i" d="M211.1,249.4h0a.9.9,0,0,1,.9.9h0a.9.9,0,0,1-.9.9h0a.9.9,0,0,1-.9-.9h0A.9.9,0,0,1,211.1,249.4Z"/><path class="k" d="M212.6,245.7h0a.9.9,0,0,1,.9.9h0a1,1,0,0,1-.9,1h0a1,1,0,0,1-.9-1h0A.9.9,0,0,1,212.6,245.7Z"/><path class="i" d="M214.8,249.4h0a.9.9,0,0,1,.9.9h0a.9.9,0,0,1-.9.9h0a.9.9,0,0,1-.9-.9h0A.9.9,0,0,1,214.8,249.4Z"/><path class="i" d="M216.3,245.7h0a.9.9,0,0,1,.9.9h0a1,1,0,0,1-.9,1h0a1,1,0,0,1-1-1h0A.9.9,0,0,1,216.3,245.7Z"/><path class="j" d="M218.5,249.4h0a.9.9,0,0,1,.9.9h0a.9.9,0,0,1-.9.9h0a1,1,0,0,1-1-.9h0A1,1,0,0,1,218.5,249.4Z"/><path class="i" d="M219.9,245.7h0a1,1,0,0,1,1,.9h0a1.1,1.1,0,0,1-1,1h0a1,1,0,0,1-.9-1h0A.9.9,0,0,1,219.9,245.7Z"/><path class="i" d="M222.1,249.4h0a1,1,0,0,1,1,.9h0a1,1,0,0,1-1,.9h0a.9.9,0,0,1-.9-.9h0A.9.9,0,0,1,222.1,249.4Z"/><circle class="l" cx="228.6" cy="248.3" r="1.6"/><circle class="m" cx="228.6" cy="248.3" r="1.3"/><path class="i" d="M200.9,245h0a.7.7,0,0,1,.7.7v5.2a.7.7,0,0,1-.7.7h0a.7.7,0,0,1-.7-.7v-5.2A.7.7,0,0,1,200.9,245Z"/><path class="i" d="M198.1,245h0a.7.7,0,0,1,.7.7v5.2a.7.7,0,0,1-.7.7h0a.8.8,0,0,1-.7-.7v-5.2A.8.8,0,0,1,198.1,245Z"/><rect class="h" x="184.2" y="245" width="11.1" height="2.78"/><rect class="h" x="184.2" y="248.9" width="11.1" height="2.78"/><path class="k" d="M200.2,246.4h1.4v4.5a.7.7,0,0,1-.7.7h0a.7.7,0,0,1-.7-.7v-4.5Z"/><path class="j" d="M197.4,249.1h1.4v1.8a.7.7,0,0,1-.7.7h0a.8.8,0,0,1-.7-.7h0v-1.8Z"/><rect class="n" x="184.2" y="245" width="2.8" height="2.78"/><rect class="n" x="184.2" y="248.9" width="2.8" height="2.78"/><rect class="o" x="188.4" y="246.1" width="5.6" height="0.7"/><rect class="o" x="188.4" y="249.9" width="5.6" height="0.7"/><circle class="l" cx="228.6" cy="248.3" r="3.3"/><circle class="p" cx="228.6" cy="248.3" r="3"/><path class="o" d="M171.9,251h0a1.1,1.1,0,0,1,1.1,1.2h0a1.1,1.1,0,0,1-1.1,1.1h0a1.2,1.2,0,0,1-1.2-1.1h0A1.2,1.2,0,0,1,171.9,251Z"/><path class="q" d="M172,244.3h0a.5.5,0,0,1,.5.5v4.5a.6.6,0,0,1-.5.6h0a.6.6,0,0,1-.6-.6v-4.5A.6.6,0,0,1,172,244.3Z"/><path class="r" d="M168.4,251h0a1.2,1.2,0,0,1,1.2,1.2h0a1.1,1.1,0,0,1-1.2,1.1h0a1.1,1.1,0,0,1-1.1-1.1h0A1.1,1.1,0,0,1,168.4,251Z"/><path class="s" d="M168.5,246.4h0a.5.5,0,0,1,.5.5v2.4a.6.6,0,0,1-.5.6h0a.6.6,0,0,1-.5-.6v-2.4A.5.5,0,0,1,168.5,246.4Z"/><path class="o" d="M164.9,251h0a1.2,1.2,0,0,1,1.2,1.2h0a1.1,1.1,0,0,1-1.2,1.1h0a1.1,1.1,0,0,1-1.1-1.1h0A1.1,1.1,0,0,1,164.9,251Z"/><path class="q" d="M165,243.5h0a.5.5,0,0,1,.5.5v5.3a.6.6,0,0,1-.5.6h0a.6.6,0,0,1-.5-.6V244A.5.5,0,0,1,165,243.5Z"/><path class="k" d="M161.5,251h0a1.1,1.1,0,0,1,1.1,1.2h0a1.1,1.1,0,0,1-1.1,1.1h0a1.1,1.1,0,0,1-1.2-1.1h0A1.2,1.2,0,0,1,161.5,251Z"/><path class="k" d="M161.5,244.8h0a.6.6,0,0,1,.6.5v4a.6.6,0,0,1-.6.6h0a.6.6,0,0,1-.5-.6v-4A.5.5,0,0,1,161.5,244.8Z"/><path class="j" d="M158,251h0a1.1,1.1,0,0,1,1.1,1.2h0a1.1,1.1,0,0,1-1.1,1.1h0a1.2,1.2,0,0,1-1.2-1.1h0A1.2,1.2,0,0,1,158,251Z"/><path class="j" d="M158.1,247.1h0a.5.5,0,0,1,.5.5v1.7a.6.6,0,0,1-.5.6h0a.6.6,0,0,1-.6-.6v-1.7A.6.6,0,0,1,158.1,247.1Z"/><rect class="f" x="154.2" y="277.1" width="79.3" height="6.16"/><path class="g" d="M153.4,260.4h81.1c1.6,0,2.9,1,2.9,2.1V276c0,1.2-1.3,2.1-2.9,2.1H153.4c-1.6,0-2.9-.9-2.9-2.1V262.5C150.5,261.4,151.8,260.4,153.4,260.4Z"/><path class="h" d="M151.8,260.4h28v17.7h-28a1.3,1.3,0,0,1-1.3-1.2V261.7A1.3,1.3,0,0,1,151.8,260.4Z"/><path class="i" d="M205.2,266.8h0a.9.9,0,0,1,.9.9h0a.9.9,0,0,1-.9.9h0a.9.9,0,0,1-.9-.9h0A.9.9,0,0,1,205.2,266.8Z"/><path class="j" d="M207.4,270.4h0a1,1,0,0,1,.9,1h0a.9.9,0,0,1-.9.9h0a.9.9,0,0,1-.9-.9h0A1,1,0,0,1,207.4,270.4Z"/><path class="i" d="M208.9,266.8h0a.9.9,0,0,1,.9.9h0a.9.9,0,0,1-.9.9h0a.9.9,0,0,1-.9-.9h0A.9.9,0,0,1,208.9,266.8Z"/><path class="i" d="M211.1,270.4h0a1,1,0,0,1,.9,1h0a.9.9,0,0,1-.9.9h0a.9.9,0,0,1-.9-.9h0A1,1,0,0,1,211.1,270.4Z"/><path class="k" d="M212.6,266.8h0a.9.9,0,0,1,.9.9h0a.9.9,0,0,1-.9.9h0a.9.9,0,0,1-.9-.9h0A.9.9,0,0,1,212.6,266.8Z"/><path class="i" d="M214.8,270.4h0a1,1,0,0,1,.9,1h0a.9.9,0,0,1-.9.9h0a.9.9,0,0,1-.9-.9h0A1,1,0,0,1,214.8,270.4Z"/><path class="i" d="M216.3,266.8h0a.9.9,0,0,1,.9.9h0a.9.9,0,0,1-.9.9h0a.9.9,0,0,1-1-.9h0A.9.9,0,0,1,216.3,266.8Z"/><path class="j" d="M218.5,270.4h0a1,1,0,0,1,.9,1h0a.9.9,0,0,1-.9.9h0a1,1,0,0,1-1-.9h0A1.1,1.1,0,0,1,218.5,270.4Z"/><path class="i" d="M219.9,266.8h0a1,1,0,0,1,1,.9h0a1,1,0,0,1-1,.9h0a.9.9,0,0,1-.9-.9h0A.9.9,0,0,1,219.9,266.8Z"/><path class="i" d="M222.1,270.4h0a1.1,1.1,0,0,1,1,1h0a1,1,0,0,1-1,.9h0a.9.9,0,0,1-.9-.9h0A1,1,0,0,1,222.1,270.4Z"/><circle class="l" cx="228.6" cy="269.4" r="1.6"/><circle class="m" cx="228.6" cy="269.4" r="1.3"/><path class="i" d="M200.9,266.1h0a.7.7,0,0,1,.7.7V272a.7.7,0,0,1-.7.7h0a.7.7,0,0,1-.7-.7v-5.2A.7.7,0,0,1,200.9,266.1Z"/><path class="i" d="M198.1,266.1h0a.7.7,0,0,1,.7.7V272a.7.7,0,0,1-.7.7h0a.8.8,0,0,1-.7-.7v-5.2A.8.8,0,0,1,198.1,266.1Z"/><rect class="h" x="184.2" y="266.1" width="11.1" height="2.78"/><rect class="h" x="184.2" y="269.9" width="11.1" height="2.78"/><path class="k" d="M200.2,267.5h1.4V272a.7.7,0,0,1-.7.7h0a.7.7,0,0,1-.7-.7v-4.5Z"/><path class="j" d="M197.4,270.1h1.4V272a.7.7,0,0,1-.7.7h0a.8.8,0,0,1-.7-.7h0v-1.9Z"/><rect class="n" x="184.2" y="266.1" width="2.8" height="2.78"/><rect class="n" x="184.2" y="269.9" width="2.8" height="2.78"/><rect class="o" x="188.4" y="267.1" width="5.6" height="0.7"/><rect class="o" x="188.4" y="270.9" width="5.6" height="0.7"/><circle class="l" cx="228.6" cy="269.4" r="3.3"/><circle class="p" cx="228.6" cy="269.4" r="3"/><path class="o" d="M171.9,272.1h0a1.1,1.1,0,0,1,1.1,1.1h0a1.1,1.1,0,0,1-1.1,1.1h0a1.2,1.2,0,0,1-1.2-1.1h0A1.2,1.2,0,0,1,171.9,272.1Z"/><path class="q" d="M172,265.3h0a.6.6,0,0,1,.5.6v4.5a.5.5,0,0,1-.5.5h0a.6.6,0,0,1-.6-.5v-4.5A.6.6,0,0,1,172,265.3Z"/><path class="r" d="M168.4,272.1h0a1.1,1.1,0,0,1,1.2,1.1h0a1.1,1.1,0,0,1-1.2,1.1h0a1.1,1.1,0,0,1-1.1-1.1h0A1.1,1.1,0,0,1,168.4,272.1Z"/><path class="s" d="M168.5,267.4h0a.5.5,0,0,1,.5.5v2.5a.5.5,0,0,1-.5.5h0a.5.5,0,0,1-.5-.5v-2.5A.5.5,0,0,1,168.5,267.4Z"/><path class="o" d="M164.9,272.1h0a1.1,1.1,0,0,1,1.2,1.1h0a1.1,1.1,0,0,1-1.2,1.1h0a1.1,1.1,0,0,1-1.1-1.1h0A1.1,1.1,0,0,1,164.9,272.1Z"/><path class="q" d="M165,264.5h0a.6.6,0,0,1,.5.6v5.3a.5.5,0,0,1-.5.5h0a.5.5,0,0,1-.5-.5v-5.3A.6.6,0,0,1,165,264.5Z"/><path class="k" d="M161.5,272.1h0a1.1,1.1,0,0,1,1.1,1.1h0a1.1,1.1,0,0,1-1.1,1.1h0a1.1,1.1,0,0,1-1.2-1.1h0A1.1,1.1,0,0,1,161.5,272.1Z"/><path class="k" d="M161.5,265.9h0a.6.6,0,0,1,.6.5v4a.6.6,0,0,1-.6.5h0a.5.5,0,0,1-.5-.5v-4A.5.5,0,0,1,161.5,265.9Z"/><path class="j" d="M158,272.1h0a1.1,1.1,0,0,1,1.1,1.1h0a1.1,1.1,0,0,1-1.1,1.1h0a1.2,1.2,0,0,1-1.2-1.1h0A1.2,1.2,0,0,1,158,272.1Z"/><path class="j" d="M158.1,268.1h0a.6.6,0,0,1,.5.5v1.8a.5.5,0,0,1-.5.5h0a.6.6,0,0,1-.6-.5v-1.8A.6.6,0,0,1,158.1,268.1Z"/><path class="g" d="M153.4,281.5h81.1c1.6,0,2.9.9,2.9,2.1V297c0,1.2-1.3,2.1-2.9,2.1H153.4c-1.6,0-2.9-.9-2.9-2.1V283.6C150.5,282.4,151.8,281.5,153.4,281.5Z"/><path class="h" d="M151.8,281.5h28v17.6h-28a1.2,1.2,0,0,1-1.3-1.2V282.7A1.2,1.2,0,0,1,151.8,281.5Z"/><path class="i" d="M205.2,287.8h0a.9.9,0,0,1,.9.9h0a.9.9,0,0,1-.9.9h0a.9.9,0,0,1-.9-.9h0A.9.9,0,0,1,205.2,287.8Z"/><path class="j" d="M207.4,291.5h0a.9.9,0,0,1,.9.9h0a.9.9,0,0,1-.9.9h0a.9.9,0,0,1-.9-.9h0A.9.9,0,0,1,207.4,291.5Z"/><path class="i" d="M208.9,287.8h0a.9.9,0,0,1,.9.9h0a.9.9,0,0,1-.9.9h0a.9.9,0,0,1-.9-.9h0A.9.9,0,0,1,208.9,287.8Z"/><path class="i" d="M211.1,291.5h0a.9.9,0,0,1,.9.9h0a.9.9,0,0,1-.9.9h0a.9.9,0,0,1-.9-.9h0A.9.9,0,0,1,211.1,291.5Z"/><path class="k" d="M212.6,287.8h0a.9.9,0,0,1,.9.9h0a.9.9,0,0,1-.9.9h0a.9.9,0,0,1-.9-.9h0A.9.9,0,0,1,212.6,287.8Z"/><path class="i" d="M214.8,291.5h0a.9.9,0,0,1,.9.9h0a.9.9,0,0,1-.9.9h0a.9.9,0,0,1-.9-.9h0A.9.9,0,0,1,214.8,291.5Z"/><path class="i" d="M216.3,287.8h0a.9.9,0,0,1,.9.9h0a.9.9,0,0,1-.9.9h0a.9.9,0,0,1-1-.9h0A.9.9,0,0,1,216.3,287.8Z"/><path class="j" d="M218.5,291.5h0a.9.9,0,0,1,.9.9h0a.9.9,0,0,1-.9.9h0a1,1,0,0,1-1-.9h0A1,1,0,0,1,218.5,291.5Z"/><path class="i" d="M219.9,287.8h0a1,1,0,0,1,1,.9h0a1,1,0,0,1-1,.9h0a.9.9,0,0,1-.9-.9h0A.9.9,0,0,1,219.9,287.8Z"/><path class="i" d="M222.1,291.5h0a1,1,0,0,1,1,.9h0a1,1,0,0,1-1,.9h0a.9.9,0,0,1-.9-.9h0A.9.9,0,0,1,222.1,291.5Z"/><circle class="l" cx="228.6" cy="290.4" r="1.6"/><circle class="m" cx="228.6" cy="290.4" r="1.3"/><path class="i" d="M200.9,287.1h0a.7.7,0,0,1,.7.7V293a.7.7,0,0,1-.7.7h0a.7.7,0,0,1-.7-.7v-5.2A.7.7,0,0,1,200.9,287.1Z"/><path class="i" d="M198.1,287.1h0a.7.7,0,0,1,.7.7V293a.7.7,0,0,1-.7.7h0a.8.8,0,0,1-.7-.7v-5.2A.8.8,0,0,1,198.1,287.1Z"/><rect class="h" x="184.2" y="287.1" width="11.1" height="2.78"/><rect class="h" x="184.2" y="290.9" width="11.1" height="2.78"/><path class="k" d="M200.2,288.5h1.4V293a.7.7,0,0,1-.7.7h0a.7.7,0,0,1-.7-.7v-4.5Z"/><path class="j" d="M197.4,291.1h1.4V293a.7.7,0,0,1-.7.7h0a.8.8,0,0,1-.7-.7h0v-1.9Z"/><rect class="n" x="184.2" y="287.1" width="2.8" height="2.78"/><rect class="n" x="184.2" y="290.9" width="2.8" height="2.78"/><rect class="o" x="188.4" y="288.2" width="5.6" height="0.7"/><rect class="o" x="188.4" y="292" width="5.6" height="0.7"/><circle class="l" cx="228.6" cy="290.4" r="3.3"/><circle class="p" cx="228.6" cy="290.4" r="3"/><path class="o" d="M171.9,292.8h0a1.1,1.1,0,0,1,1.1,1.1h0a1.1,1.1,0,0,1-1.1,1.2h0a1.2,1.2,0,0,1-1.2-1.2h0A1.2,1.2,0,0,1,171.9,292.8Z"/><path class="q" d="M172,286.1h0a.5.5,0,0,1,.5.5v4.5a.5.5,0,0,1-.5.5h0a.6.6,0,0,1-.6-.5v-4.5A.6.6,0,0,1,172,286.1Z"/><path class="r" d="M168.4,292.8h0a1.1,1.1,0,0,1,1.2,1.1h0a1.2,1.2,0,0,1-1.2,1.2h0a1.1,1.1,0,0,1-1.1-1.2h0A1.1,1.1,0,0,1,168.4,292.8Z"/><path class="s" d="M168.5,288.2h0a.5.5,0,0,1,.5.5v2.4a.5.5,0,0,1-.5.5h0a.5.5,0,0,1-.5-.5v-2.4A.5.5,0,0,1,168.5,288.2Z"/><path class="o" d="M164.9,292.8h0a1.1,1.1,0,0,1,1.2,1.1h0a1.2,1.2,0,0,1-1.2,1.2h0a1.1,1.1,0,0,1-1.1-1.2h0A1.1,1.1,0,0,1,164.9,292.8Z"/><path class="q" d="M165,285.3h0a.5.5,0,0,1,.5.5v5.3a.5.5,0,0,1-.5.5h0a.5.5,0,0,1-.5-.5v-5.3A.5.5,0,0,1,165,285.3Z"/><path class="k" d="M161.5,292.8h0a1.1,1.1,0,0,1,1.1,1.1h0a1.1,1.1,0,0,1-1.1,1.2h0a1.2,1.2,0,0,1-1.2-1.2h0A1.1,1.1,0,0,1,161.5,292.8Z"/><path class="k" d="M161.5,286.6h0a.6.6,0,0,1,.6.5v4a.6.6,0,0,1-.6.5h0a.5.5,0,0,1-.5-.5v-4A.5.5,0,0,1,161.5,286.6Z"/><path class="j" d="M158,292.8h0a1.1,1.1,0,0,1,1.1,1.1h0a1.1,1.1,0,0,1-1.1,1.2h0a1.2,1.2,0,0,1-1.2-1.2h0A1.2,1.2,0,0,1,158,292.8Z"/><path class="j" d="M158.1,288.8h0a.6.6,0,0,1,.5.6v1.7a.5.5,0,0,1-.5.5h0a.6.6,0,0,1-.6-.5v-1.7A.6.6,0,0,1,158.1,288.8Z"/><rect class="f" x="279.9" y="235" width="79.3" height="6.16"/><path class="g" d="M279.1,218.4h81.1c1.6,0,2.9.9,2.9,2.1v13.4c0,1.2-1.3,2.1-2.9,2.1H279.1c-1.6,0-2.9-.9-2.9-2.1V220.5C276.2,219.3,277.5,218.4,279.1,218.4Z"/><path class="h" d="M277.5,218.4h28V236h-28a1.2,1.2,0,0,1-1.3-1.2V219.6A1.2,1.2,0,0,1,277.5,218.4Z"/><path class="i" d="M330.9,224.7h0a.9.9,0,0,1,.9.9h0a.9.9,0,0,1-.9.9h0a.9.9,0,0,1-.9-.9h0A.9.9,0,0,1,330.9,224.7Z"/><path class="j" d="M333.1,228.4h0a1,1,0,0,1,1,.9h0a1,1,0,0,1-1,.9h0a.9.9,0,0,1-.9-.9h0A.9.9,0,0,1,333.1,228.4Z"/><path class="i" d="M334.6,224.7h0a.9.9,0,0,1,.9.9h0a.9.9,0,0,1-.9.9h0a.9.9,0,0,1-.9-.9h0A.9.9,0,0,1,334.6,224.7Z"/><path class="i" d="M336.8,228.4h0a.9.9,0,0,1,.9.9h0a.9.9,0,0,1-.9.9h0a.9.9,0,0,1-.9-.9h0A.9.9,0,0,1,336.8,228.4Z"/><path class="k" d="M338.3,224.7h0a.9.9,0,0,1,.9.9h0a.9.9,0,0,1-.9.9h0a.9.9,0,0,1-.9-.9h0A.9.9,0,0,1,338.3,224.7Z"/><path class="i" d="M340.5,228.4h0a.9.9,0,0,1,.9.9h0a.9.9,0,0,1-.9.9h0a.9.9,0,0,1-.9-.9h0A.9.9,0,0,1,340.5,228.4Z"/><path class="i" d="M342,224.7h0a.9.9,0,0,1,.9.9h0a.9.9,0,0,1-.9.9h0a1,1,0,0,1-1-.9h0A1,1,0,0,1,342,224.7Z"/><path class="j" d="M344.2,228.4h0a.9.9,0,0,1,.9.9h0a.9.9,0,0,1-.9.9h0a.9.9,0,0,1-.9-.9h0A.9.9,0,0,1,344.2,228.4Z"/><path class="i" d="M345.6,224.7h0a.9.9,0,0,1,1,.9h0a.9.9,0,0,1-1,.9h0a.9.9,0,0,1-.9-.9h0A.9.9,0,0,1,345.6,224.7Z"/><path class="i" d="M347.9,228.4h0a.9.9,0,0,1,.9.9h0a.9.9,0,0,1-.9.9h0a.9.9,0,0,1-1-.9h0A.9.9,0,0,1,347.9,228.4Z"/><circle class="l" cx="354.3" cy="227.3" r="1.6"/><circle class="m" cx="354.3" cy="227.3" r="1.3"/><path class="i" d="M326.6,224h0a.7.7,0,0,1,.7.7v5.2a.7.7,0,0,1-.7.7h0a.8.8,0,0,1-.7-.7v-5.2A.8.8,0,0,1,326.6,224Z"/><path class="i" d="M323.9,224h0a.8.8,0,0,1,.7.7v5.2a.8.8,0,0,1-.7.7h0a.7.7,0,0,1-.7-.7v-5.2A.7.7,0,0,1,323.9,224Z"/><rect class="h" x="310" y="224" width="11.1" height="2.78"/><rect class="h" x="310" y="227.8" width="11.1" height="2.78"/><path class="k" d="M325.9,225.4h1.4v4.5a.7.7,0,0,1-.7.7h0a.8.8,0,0,1-.7-.7v-4.5Z"/><path class="j" d="M323.2,228h1.4v1.9a.8.8,0,0,1-.7.7h0a.7.7,0,0,1-.7-.7h0V228Z"/><rect class="n" x="310" y="224" width="2.8" height="2.78"/><rect class="n" x="310" y="227.8" width="2.8" height="2.78"/><rect class="o" x="314.1" y="225" width="5.6" height="0.7"/><rect class="o" x="314.1" y="228.9" width="5.6" height="0.7"/><circle class="l" cx="354.3" cy="227.3" r="3.3"/><circle class="p" cx="354.3" cy="227.3" r="3"/><path class="o" d="M297.6,230h0a1.2,1.2,0,0,1,1.2,1.1h0a1.3,1.3,0,0,1-1.2,1.2h0a1.2,1.2,0,0,1-1.1-1.2h0A1.1,1.1,0,0,1,297.6,230Z"/><path class="q" d="M297.7,223.3h0a.5.5,0,0,1,.5.5v4.5a.5.5,0,0,1-.5.5h0a.5.5,0,0,1-.5-.5v-4.5A.5.5,0,0,1,297.7,223.3Z"/><path class="r" d="M294.1,230h0a1.1,1.1,0,0,1,1.2,1.1h0a1.2,1.2,0,0,1-1.2,1.2h0a1.2,1.2,0,0,1-1.1-1.2h0A1.1,1.1,0,0,1,294.1,230Z"/><path class="s" d="M294.2,225.3h0a.6.6,0,0,1,.5.6v2.4a.5.5,0,0,1-.5.5h0a.5.5,0,0,1-.5-.5v-2.4A.6.6,0,0,1,294.2,225.3Z"/><path class="o" d="M290.7,230h0a1.1,1.1,0,0,1,1.1,1.1h0a1.2,1.2,0,0,1-1.1,1.2h0a1.2,1.2,0,0,1-1.2-1.2h0A1.1,1.1,0,0,1,290.7,230Z"/><path class="q" d="M290.7,222.5h0a.5.5,0,0,1,.5.5v5.3a.5.5,0,0,1-.5.5h0a.5.5,0,0,1-.5-.5V223A.5.5,0,0,1,290.7,222.5Z"/><path class="k" d="M287.2,230h0a1.1,1.1,0,0,1,1.1,1.1h0a1.2,1.2,0,0,1-1.1,1.2h0a1.2,1.2,0,0,1-1.2-1.2h0A1.1,1.1,0,0,1,287.2,230Z"/><path class="k" d="M287.2,223.8h0a.6.6,0,0,1,.6.5v4a.6.6,0,0,1-.6.5h0a.5.5,0,0,1-.5-.5v-4A.5.5,0,0,1,287.2,223.8Z"/><path class="j" d="M283.7,230h0a1.1,1.1,0,0,1,1.1,1.1h0a1.2,1.2,0,0,1-1.1,1.2h0a1.2,1.2,0,0,1-1.1-1.2h0A1.1,1.1,0,0,1,283.7,230Z"/><path class="j" d="M283.8,226h0a.6.6,0,0,1,.5.6v1.7a.5.5,0,0,1-.5.5h0a.6.6,0,0,1-.6-.5v-1.7A.6.6,0,0,1,283.8,226Z"/><rect class="f" x="279.9" y="256" width="79.3" height="6.16"/><path class="g" d="M279.1,239.4h81.1c1.6,0,2.9.9,2.9,2.1V255c0,1.1-1.3,2.1-2.9,2.1H279.1c-1.6,0-2.9-1-2.9-2.1V241.5C276.2,240.3,277.5,239.4,279.1,239.4Z"/><path class="h" d="M277.5,239.4h28v17.7h-28a1.3,1.3,0,0,1-1.3-1.3V240.7A1.3,1.3,0,0,1,277.5,239.4Z"/><path class="i" d="M330.9,245.7h0a.9.9,0,0,1,.9.9h0a1,1,0,0,1-.9,1h0a1,1,0,0,1-.9-1h0A.9.9,0,0,1,330.9,245.7Z"/><path class="j" d="M333.1,249.4h0a1,1,0,0,1,1,.9h0a1,1,0,0,1-1,.9h0a.9.9,0,0,1-.9-.9h0A.9.9,0,0,1,333.1,249.4Z"/><path class="i" d="M334.6,245.7h0a.9.9,0,0,1,.9.9h0a1,1,0,0,1-.9,1h0a1,1,0,0,1-.9-1h0A.9.9,0,0,1,334.6,245.7Z"/><path class="i" d="M336.8,249.4h0a.9.9,0,0,1,.9.9h0a.9.9,0,0,1-.9.9h0a.9.9,0,0,1-.9-.9h0A.9.9,0,0,1,336.8,249.4Z"/><path class="k" d="M338.3,245.7h0a.9.9,0,0,1,.9.9h0a1,1,0,0,1-.9,1h0a1,1,0,0,1-.9-1h0A.9.9,0,0,1,338.3,245.7Z"/><path class="i" d="M340.5,249.4h0a.9.9,0,0,1,.9.9h0a.9.9,0,0,1-.9.9h0a.9.9,0,0,1-.9-.9h0A.9.9,0,0,1,340.5,249.4Z"/><path class="i" d="M342,245.7h0a.9.9,0,0,1,.9.9h0a1,1,0,0,1-.9,1h0a1.1,1.1,0,0,1-1-1h0A1,1,0,0,1,342,245.7Z"/><path class="j" d="M344.2,249.4h0a.9.9,0,0,1,.9.9h0a.9.9,0,0,1-.9.9h0a.9.9,0,0,1-.9-.9h0A.9.9,0,0,1,344.2,249.4Z"/><path class="i" d="M345.6,245.7h0a.9.9,0,0,1,1,.9h0a1,1,0,0,1-1,1h0a1,1,0,0,1-.9-1h0A.9.9,0,0,1,345.6,245.7Z"/><path class="i" d="M347.9,249.4h0a.9.9,0,0,1,.9.9h0a.9.9,0,0,1-.9.9h0a.9.9,0,0,1-1-.9h0A.9.9,0,0,1,347.9,249.4Z"/><circle class="l" cx="354.3" cy="248.3" r="1.6"/><circle class="m" cx="354.3" cy="248.3" r="1.3"/><path class="i" d="M326.6,245h0a.7.7,0,0,1,.7.7v5.2a.7.7,0,0,1-.7.7h0a.8.8,0,0,1-.7-.7v-5.2A.8.8,0,0,1,326.6,245Z"/><path class="i" d="M323.9,245h0a.8.8,0,0,1,.7.7v5.2a.8.8,0,0,1-.7.7h0a.7.7,0,0,1-.7-.7v-5.2A.7.7,0,0,1,323.9,245Z"/><rect class="h" x="310" y="245" width="11.1" height="2.78"/><rect class="h" x="310" y="248.9" width="11.1" height="2.78"/><path class="k" d="M325.9,246.4h1.4v4.5a.7.7,0,0,1-.7.7h0a.8.8,0,0,1-.7-.7v-4.5Z"/><path class="j" d="M323.2,249.1h1.4v1.8a.8.8,0,0,1-.7.7h0a.7.7,0,0,1-.7-.7h0v-1.8Z"/><rect class="n" x="310" y="245" width="2.8" height="2.78"/><rect class="n" x="310" y="248.9" width="2.8" height="2.78"/><rect class="o" x="314.1" y="246.1" width="5.6" height="0.7"/><rect class="o" x="314.1" y="249.9" width="5.6" height="0.7"/><circle class="l" cx="354.3" cy="248.3" r="3.3"/><circle class="p" cx="354.3" cy="248.3" r="3"/><path class="o" d="M297.6,251h0a1.2,1.2,0,0,1,1.2,1.2h0a1.2,1.2,0,0,1-1.2,1.1h0a1.1,1.1,0,0,1-1.1-1.1h0A1.1,1.1,0,0,1,297.6,251Z"/><path class="q" d="M297.7,244.3h0a.5.5,0,0,1,.5.5v4.5a.6.6,0,0,1-.5.6h0a.6.6,0,0,1-.5-.6v-4.5A.5.5,0,0,1,297.7,244.3Z"/><path class="r" d="M294.1,251h0a1.2,1.2,0,0,1,1.2,1.2h0a1.1,1.1,0,0,1-1.2,1.1h0a1.1,1.1,0,0,1-1.1-1.1h0A1.1,1.1,0,0,1,294.1,251Z"/><path class="s" d="M294.2,246.4h0a.5.5,0,0,1,.5.5v2.4a.6.6,0,0,1-.5.6h0a.6.6,0,0,1-.5-.6v-2.4A.5.5,0,0,1,294.2,246.4Z"/><path class="o" d="M290.7,251h0a1.1,1.1,0,0,1,1.1,1.2h0a1.1,1.1,0,0,1-1.1,1.1h0a1.1,1.1,0,0,1-1.2-1.1h0A1.2,1.2,0,0,1,290.7,251Z"/><path class="q" d="M290.7,243.5h0a.5.5,0,0,1,.5.5v5.3a.6.6,0,0,1-.5.6h0a.6.6,0,0,1-.5-.6V244A.5.5,0,0,1,290.7,243.5Z"/><path class="k" d="M287.2,251h0a1.1,1.1,0,0,1,1.1,1.2h0a1.1,1.1,0,0,1-1.1,1.1h0a1.1,1.1,0,0,1-1.2-1.1h0A1.2,1.2,0,0,1,287.2,251Z"/><path class="k" d="M287.2,244.8h0a.6.6,0,0,1,.6.5v4a.6.6,0,0,1-.6.6h0a.6.6,0,0,1-.5-.6v-4A.6.6,0,0,1,287.2,244.8Z"/><path class="j" d="M283.7,251h0a1.1,1.1,0,0,1,1.1,1.2h0a1.1,1.1,0,0,1-1.1,1.1h0a1.1,1.1,0,0,1-1.1-1.1h0A1.1,1.1,0,0,1,283.7,251Z"/><path class="j" d="M283.8,247.1h0a.5.5,0,0,1,.5.5v1.7a.6.6,0,0,1-.5.6h0a.6.6,0,0,1-.6-.6v-1.7A.6.6,0,0,1,283.8,247.1Z"/><rect class="f" x="279.9" y="277.1" width="79.3" height="6.16"/><path class="g" d="M279.1,260.4h81.1c1.6,0,2.9,1,2.9,2.1V276c0,1.2-1.3,2.1-2.9,2.1H279.1c-1.6,0-2.9-.9-2.9-2.1V262.5C276.2,261.4,277.5,260.4,279.1,260.4Z"/><path class="h" d="M277.5,260.4h28v17.7h-28a1.3,1.3,0,0,1-1.3-1.2V261.7A1.3,1.3,0,0,1,277.5,260.4Z"/><path class="i" d="M330.9,266.8h0a.9.9,0,0,1,.9.9h0a.9.9,0,0,1-.9.9h0a.9.9,0,0,1-.9-.9h0A.9.9,0,0,1,330.9,266.8Z"/><path class="j" d="M333.1,270.4h0a1.1,1.1,0,0,1,1,1h0a1,1,0,0,1-1,.9h0a.9.9,0,0,1-.9-.9h0A1,1,0,0,1,333.1,270.4Z"/><path class="i" d="M334.6,266.8h0a.9.9,0,0,1,.9.9h0a.9.9,0,0,1-.9.9h0a.9.9,0,0,1-.9-.9h0A.9.9,0,0,1,334.6,266.8Z"/><path class="i" d="M336.8,270.4h0a1,1,0,0,1,.9,1h0a.9.9,0,0,1-.9.9h0a.9.9,0,0,1-.9-.9h0A1,1,0,0,1,336.8,270.4Z"/><path class="k" d="M338.3,266.8h0a.9.9,0,0,1,.9.9h0a.9.9,0,0,1-.9.9h0a.9.9,0,0,1-.9-.9h0A.9.9,0,0,1,338.3,266.8Z"/><path class="i" d="M340.5,270.4h0a1,1,0,0,1,.9,1h0a.9.9,0,0,1-.9.9h0a.9.9,0,0,1-.9-.9h0A1,1,0,0,1,340.5,270.4Z"/><path class="i" d="M342,266.8h0a.9.9,0,0,1,.9.9h0a.9.9,0,0,1-.9.9h0a1,1,0,0,1-1-.9h0A1,1,0,0,1,342,266.8Z"/><path class="j" d="M344.2,270.4h0a1,1,0,0,1,.9,1h0a.9.9,0,0,1-.9.9h0a.9.9,0,0,1-.9-.9h0A1,1,0,0,1,344.2,270.4Z"/><path class="i" d="M345.6,266.8h0a.9.9,0,0,1,1,.9h0a.9.9,0,0,1-1,.9h0a.9.9,0,0,1-.9-.9h0A.9.9,0,0,1,345.6,266.8Z"/><path class="i" d="M347.9,270.4h0a1,1,0,0,1,.9,1h0a.9.9,0,0,1-.9.9h0a.9.9,0,0,1-1-.9h0A1,1,0,0,1,347.9,270.4Z"/><circle class="l" cx="354.3" cy="269.4" r="1.6"/><circle class="m" cx="354.3" cy="269.4" r="1.3"/><path class="i" d="M326.6,266.1h0a.7.7,0,0,1,.7.7V272a.7.7,0,0,1-.7.7h0a.8.8,0,0,1-.7-.7v-5.2A.8.8,0,0,1,326.6,266.1Z"/><path class="i" d="M323.9,266.1h0a.8.8,0,0,1,.7.7V272a.8.8,0,0,1-.7.7h0a.7.7,0,0,1-.7-.7v-5.2A.7.7,0,0,1,323.9,266.1Z"/><rect class="h" x="310" y="266.1" width="11.1" height="2.78"/><rect class="h" x="310" y="269.9" width="11.1" height="2.78"/><path class="k" d="M325.9,267.5h1.4V272a.7.7,0,0,1-.7.7h0a.8.8,0,0,1-.7-.7v-4.5Z"/><path class="j" d="M323.2,270.1h1.4V272a.8.8,0,0,1-.7.7h0a.7.7,0,0,1-.7-.7h0v-1.9Z"/><rect class="n" x="310" y="266.1" width="2.8" height="2.78"/><rect class="n" x="310" y="269.9" width="2.8" height="2.78"/><rect class="o" x="314.1" y="267.1" width="5.6" height="0.7"/><rect class="o" x="314.1" y="270.9" width="5.6" height="0.7"/><circle class="l" cx="354.3" cy="269.4" r="3.3"/><circle class="p" cx="354.3" cy="269.4" r="3"/><path class="o" d="M297.6,272.1h0a1.2,1.2,0,0,1,1.2,1.1h0a1.2,1.2,0,0,1-1.2,1.1h0a1.1,1.1,0,0,1-1.1-1.1h0A1.1,1.1,0,0,1,297.6,272.1Z"/><path class="q" d="M297.7,265.3h0a.6.6,0,0,1,.5.6v4.5a.5.5,0,0,1-.5.5h0a.5.5,0,0,1-.5-.5v-4.5A.6.6,0,0,1,297.7,265.3Z"/><path class="r" d="M294.1,272.1h0a1.1,1.1,0,0,1,1.2,1.1h0a1.1,1.1,0,0,1-1.2,1.1h0a1.1,1.1,0,0,1-1.1-1.1h0A1.1,1.1,0,0,1,294.1,272.1Z"/><path class="s" d="M294.2,267.4h0a.5.5,0,0,1,.5.5v2.5a.5.5,0,0,1-.5.5h0a.5.5,0,0,1-.5-.5v-2.5A.5.5,0,0,1,294.2,267.4Z"/><path class="o" d="M290.7,272.1h0a1.1,1.1,0,0,1,1.1,1.1h0a1.1,1.1,0,0,1-1.1,1.1h0a1.1,1.1,0,0,1-1.2-1.1h0A1.1,1.1,0,0,1,290.7,272.1Z"/><path class="q" d="M290.7,264.5h0a.6.6,0,0,1,.5.6v5.3a.5.5,0,0,1-.5.5h0a.5.5,0,0,1-.5-.5v-5.3A.6.6,0,0,1,290.7,264.5Z"/><path class="k" d="M287.2,272.1h0a1.1,1.1,0,0,1,1.1,1.1h0a1.1,1.1,0,0,1-1.1,1.1h0a1.1,1.1,0,0,1-1.2-1.1h0A1.1,1.1,0,0,1,287.2,272.1Z"/><path class="k" d="M287.2,265.9h0a.6.6,0,0,1,.6.5v4a.6.6,0,0,1-.6.5h0a.5.5,0,0,1-.5-.5v-4A.5.5,0,0,1,287.2,265.9Z"/><path class="j" d="M283.7,272.1h0a1.1,1.1,0,0,1,1.1,1.1h0a1.1,1.1,0,0,1-1.1,1.1h0a1.1,1.1,0,0,1-1.1-1.1h0A1.1,1.1,0,0,1,283.7,272.1Z"/><path class="j" d="M283.8,268.1h0a.5.5,0,0,1,.5.5v1.8a.5.5,0,0,1-.5.5h0a.6.6,0,0,1-.6-.5v-1.8A.6.6,0,0,1,283.8,268.1Z"/><path class="g" d="M279.1,281.5h81.1c1.6,0,2.9.9,2.9,2.1V297c0,1.2-1.3,2.1-2.9,2.1H279.1c-1.6,0-2.9-.9-2.9-2.1V283.6C276.2,282.4,277.5,281.5,279.1,281.5Z"/><path class="h" d="M277.5,281.5h28v17.6h-28a1.2,1.2,0,0,1-1.3-1.2V282.7A1.2,1.2,0,0,1,277.5,281.5Z"/><path class="i" d="M330.9,287.8h0a.9.9,0,0,1,.9.9h0a.9.9,0,0,1-.9.9h0a.9.9,0,0,1-.9-.9h0A.9.9,0,0,1,330.9,287.8Z"/><path class="j" d="M333.1,291.5h0a1,1,0,0,1,1,.9h0a1,1,0,0,1-1,.9h0a.9.9,0,0,1-.9-.9h0A.9.9,0,0,1,333.1,291.5Z"/><path class="i" d="M334.6,287.8h0a.9.9,0,0,1,.9.9h0a.9.9,0,0,1-.9.9h0a.9.9,0,0,1-.9-.9h0A.9.9,0,0,1,334.6,287.8Z"/><path class="i" d="M336.8,291.5h0a.9.9,0,0,1,.9.9h0a.9.9,0,0,1-.9.9h0a.9.9,0,0,1-.9-.9h0A.9.9,0,0,1,336.8,291.5Z"/><path class="k" d="M338.3,287.8h0a.9.9,0,0,1,.9.9h0a.9.9,0,0,1-.9.9h0a.9.9,0,0,1-.9-.9h0A.9.9,0,0,1,338.3,287.8Z"/><path class="i" d="M340.5,291.5h0a.9.9,0,0,1,.9.9h0a.9.9,0,0,1-.9.9h0a.9.9,0,0,1-.9-.9h0A.9.9,0,0,1,340.5,291.5Z"/><path class="i" d="M342,287.8h0a.9.9,0,0,1,.9.9h0a.9.9,0,0,1-.9.9h0a1,1,0,0,1-1-.9h0A1,1,0,0,1,342,287.8Z"/><path class="j" d="M344.2,291.5h0a.9.9,0,0,1,.9.9h0a.9.9,0,0,1-.9.9h0a.9.9,0,0,1-.9-.9h0A.9.9,0,0,1,344.2,291.5Z"/><path class="i" d="M345.6,287.8h0a.9.9,0,0,1,1,.9h0a.9.9,0,0,1-1,.9h0a.9.9,0,0,1-.9-.9h0A.9.9,0,0,1,345.6,287.8Z"/><path class="i" d="M347.9,291.5h0a.9.9,0,0,1,.9.9h0a.9.9,0,0,1-.9.9h0a.9.9,0,0,1-1-.9h0A.9.9,0,0,1,347.9,291.5Z"/><circle class="l" cx="354.3" cy="290.4" r="1.6"/><circle class="m" cx="354.3" cy="290.4" r="1.3"/><path class="i" d="M326.6,287.1h0a.7.7,0,0,1,.7.7V293a.7.7,0,0,1-.7.7h0a.8.8,0,0,1-.7-.7v-5.2A.8.8,0,0,1,326.6,287.1Z"/><path class="i" d="M323.9,287.1h0a.8.8,0,0,1,.7.7V293a.8.8,0,0,1-.7.7h0a.7.7,0,0,1-.7-.7v-5.2A.7.7,0,0,1,323.9,287.1Z"/><rect class="h" x="310" y="287.1" width="11.1" height="2.78"/><rect class="h" x="310" y="290.9" width="11.1" height="2.78"/><path class="k" d="M325.9,288.5h1.4V293a.7.7,0,0,1-.7.7h0a.8.8,0,0,1-.7-.7v-4.5Z"/><path class="j" d="M323.2,291.1h1.4V293a.8.8,0,0,1-.7.7h0a.7.7,0,0,1-.7-.7h0v-1.9Z"/><rect class="n" x="310" y="287.1" width="2.8" height="2.78"/><rect class="n" x="310" y="290.9" width="2.8" height="2.78"/><rect class="o" x="314.1" y="288.2" width="5.6" height="0.7"/><rect class="o" x="314.1" y="292" width="5.6" height="0.7"/><circle class="l" cx="354.3" cy="290.4" r="3.3"/><circle class="p" cx="354.3" cy="290.4" r="3"/><path class="o" d="M297.6,292.8h0a1.2,1.2,0,0,1,1.2,1.1h0a1.2,1.2,0,0,1-1.2,1.2h0a1.1,1.1,0,0,1-1.1-1.2h0A1.1,1.1,0,0,1,297.6,292.8Z"/><path class="q" d="M297.7,286.1h0a.5.5,0,0,1,.5.5v4.5a.5.5,0,0,1-.5.5h0a.5.5,0,0,1-.5-.5v-4.5A.5.5,0,0,1,297.7,286.1Z"/><path class="r" d="M294.1,292.8h0a1.1,1.1,0,0,1,1.2,1.1h0a1.2,1.2,0,0,1-1.2,1.2h0A1.1,1.1,0,0,1,293,294h0A1.1,1.1,0,0,1,294.1,292.8Z"/><path class="s" d="M294.2,288.2h0a.5.5,0,0,1,.5.5v2.4a.5.5,0,0,1-.5.5h0a.5.5,0,0,1-.5-.5v-2.4A.5.5,0,0,1,294.2,288.2Z"/><path class="o" d="M290.7,292.8h0a1.1,1.1,0,0,1,1.1,1.1h0a1.1,1.1,0,0,1-1.1,1.2h0a1.2,1.2,0,0,1-1.2-1.2h0A1.1,1.1,0,0,1,290.7,292.8Z"/><path class="q" d="M290.7,285.3h0a.5.5,0,0,1,.5.5v5.3a.5.5,0,0,1-.5.5h0a.5.5,0,0,1-.5-.5v-5.3A.5.5,0,0,1,290.7,285.3Z"/><path class="k" d="M287.2,292.8h0a1.1,1.1,0,0,1,1.1,1.1h0a1.1,1.1,0,0,1-1.1,1.2h0A1.2,1.2,0,0,1,286,294h0A1.1,1.1,0,0,1,287.2,292.8Z"/><path class="k" d="M287.2,286.6h0a.6.6,0,0,1,.6.5v4a.6.6,0,0,1-.6.5h0a.5.5,0,0,1-.5-.5v-4A.5.5,0,0,1,287.2,286.6Z"/><path class="j" d="M283.7,292.8h0a1.1,1.1,0,0,1,1.1,1.1h0a1.1,1.1,0,0,1-1.1,1.2h0a1.1,1.1,0,0,1-1.1-1.2h0A1.1,1.1,0,0,1,283.7,292.8Z"/><path class="j" d="M283.8,288.8h0a.6.6,0,0,1,.5.6v1.7a.5.5,0,0,1-.5.5h0a.6.6,0,0,1-.6-.5v-1.7A.6.6,0,0,1,283.8,288.8Z"/><line class="x" x1="319.6" y1="161.9" x2="319.6" y2="164.4"/><line class="z" x1="319.6" y1="169.2" x2="319.6" y2="205.7"/><line class="x" x1="319.6" y1="208.2" x2="319.6" y2="210.7"/><line class="x" x1="193.9" y1="161.9" x2="193.9" y2="164.4"/><line class="aa" x1="193.9" y1="169.4" x2="193.9" y2="227.3"/><line class="x" x1="193.9" y1="229.9" x2="193.9" y2="232.4"/></svg>